<?xml version="1.0" encoding="UTF-8"?>
<svg version="1.1" xmlns="http://www.w3.org/2000/svg" width="546" height="92">
<path d="M0 0 C180.18 0 360.36 0 546 0 C546 30.36 546 60.72 546 92 C365.82 92 185.64 92 0 92 C0 61.64 0 31.28 0 0 Z " fill="#5DB5F9" transform="translate(0,0)"/>
<path d="M0 0 C27.06 0 54.12 0 82 0 C82 30.36 82 60.72 82 92 C44.5853499 92.16121214 44.5853499 92.16121214 28.92382812 92.1953125 C18.10384552 92.21906017 7.28398737 92.24699891 -3.53588867 92.30175781 C-11.41546481 92.341617 -19.2949401 92.36743076 -27.17461425 92.37635398 C-31.34719023 92.38157031 -35.51947773 92.39383624 -39.69196129 92.42292023 C-43.61949665 92.45007496 -47.54662475 92.45844498 -51.47424507 92.45243073 C-52.91540617 92.45353095 -54.35658092 92.46148485 -55.79766083 92.4768219 C-57.76638934 92.4967464 -59.73533649 92.48954907 -61.70414734 92.48101807 C-63.35646126 92.48654882 -63.35646126 92.48654882 -65.04215527 92.49219131 C-68.71126264 91.88164446 -70.30824716 90.51194166 -73 88 C-74.36125 86.7625 -74.36125 86.7625 -75.75 85.5 C-77.8578038 83.15799578 -78.6595989 82.06360988 -79 79 C-78.13375 78.319375 -77.2675 77.63875 -76.375 76.9375 C-73.35595809 74.43112558 -70.8907938 71.6553889 -68.3828125 68.6484375 C-66.69303931 66.6340751 -64.96218501 64.7519509 -63 63 C-62.34 63 -61.68 63 -61 63 C-61 62.34 -61 61.68 -61 61 C-59.50390625 59.5625 -59.50390625 59.5625 -57.5625 58 C-54.84811762 55.85474956 -54.84811762 55.85474956 -53 53 C-52.34 53 -51.68 53 -51 53 C-50.67 52.01 -50.34 51.02 -50 50 C-49.34 50 -48.68 50 -48 50 C-48 49.34 -48 48.68 -48 48 C-47.34 48 -46.68 48 -46 48 C-46 47.34 -46 46.68 -46 46 C-43.6875 43.8125 -43.6875 43.8125 -41 42 C-38 43 -38 43 -37 45 C-36.92826194 47.55387492 -36.90712268 50.07276761 -36.9375 52.625 C-36.958125 55.05875 -36.97875 57.4925 -37 60 C-43.6 60 -50.2 60 -57 60 C-57 62.31 -57 64.62 -57 67 C-44.46 67 -31.92 67 -19 67 C-19 64.69 -19 62.38 -19 60 C-20.98 60 -22.96 60 -25 60 C-25.02684679 57.35409986 -25.04676357 54.70846904 -25.0625 52.0625 C-25.07087891 51.30775391 -25.07925781 50.55300781 -25.08789062 49.77539062 C-25.09652441 47.85005687 -25.05224333 45.92464419 -25 44 C-24.67 43.67 -24.34 43.34 -24 43 C-23.36126128 37.28047797 -23.36126128 37.28047797 -26 32.5 C-26.99 31.7575 -26.99 31.7575 -28 31 C-26.43306074 27.15387636 -23.94435097 24.87587769 -21 22 C-20.175 20.989375 -19.35 19.97875 -18.5 18.9375 C-16.16738288 16.19667489 -13.9387522 14.06506912 -11 12 C-10.34 12 -9.68 12 -9 12 C-8.9071875 11.13375 -8.9071875 11.13375 -8.8125 10.25 C-7.66615826 7.07551517 -5.74043158 5.87151425 -3 4 C-2.34 4 -1.68 4 -1 4 C-0.67 2.68 -0.34 1.36 0 0 Z " fill="#F3F5FA" transform="translate(464,0)"/>
<path d="M0 0 C63.03 0 126.06 0 191 0 C189.85120554 4.59517784 188.79386581 5.40906725 185 8 C184.34 8 183.68 8 183 8 C182.938125 8.5775 182.87625 9.155 182.8125 9.75 C181.66615826 12.92448483 179.74043158 14.12848575 177 16 C176.34 16 175.68 16 175 16 C174.62875 16.86625 174.62875 16.86625 174.25 17.75 C172.81700012 20.32939979 171.21575324 22.06121592 169 24 C168.34 24 167.68 24 167 24 C166.71125 24.598125 166.4225 25.19625 166.125 25.8125 C165 28 165 28 163 31 C158.71657993 30.52406444 156.84426611 28.05238315 154 25 C153.113125 24.195625 152.22625 23.39125 151.3125 22.5625 C148.78265144 19.7591543 148.0355523 17.58460411 147 14 C144.6079161 11.6079161 143.84861114 11.65423052 140.5625 11.5625 C138.16513771 11.55321594 138.16513771 11.55321594 136 12 C133.89100968 14.38111811 133.20217351 16.41455917 132.17578125 19.38671875 C130.85797675 22.31565965 129.2834531 24.25477414 127.125 26.625 C126.44695312 27.38039063 125.76890625 28.13578125 125.0703125 28.9140625 C123 31 123 31 120.7890625 32.57421875 C118.6605282 33.96898744 118.6605282 33.96898744 118.25 37.1875 C118.1675 38.115625 118.085 39.04375 118 40 C117.34 40 116.68 40 116 40 C116 40.66 116 41.32 116 42 C115.34 42 114.68 42 114 42 C114 43.98 114 45.96 114 48 C113.34 48 112.68 48 112 48 C112 48.66 112 49.32 112 50 C110.95545654 50.02505615 109.91091309 50.0501123 108.8347168 50.07592773 C104.96007984 50.17008539 101.08561866 50.27028572 97.21118164 50.37231445 C95.53414013 50.41563167 93.85705542 50.45730907 92.17993164 50.49731445 C89.76956159 50.55509485 87.3594083 50.6187668 84.94921875 50.68359375 C84.19912033 50.70030624 83.44902191 50.71701874 82.67619324 50.73423767 C79.54322008 50.82344233 76.9929064 51.00236453 74 52 C74 52.66 74 53.32 74 54 C72 56 72 56 69 57 C68.34 56.67 67.68 56.34 67 56 C65.46331135 55.77532169 63.92031946 55.59203195 62.375 55.4375 C60.93125 55.293125 59.4875 55.14875 58 55 C58 58.63 58 62.26 58 66 C57.34 66 56.68 66 56 66 C55.86722656 65.36191406 55.73445313 64.72382812 55.59765625 64.06640625 C55.42105469 63.24011719 55.24445313 62.41382813 55.0625 61.5625 C54.88847656 60.73878906 54.71445312 59.91507813 54.53515625 59.06640625 C54.19247006 57.02338796 54.19247006 57.02338796 53 56 C51.2962092 55.77246643 49.58426501 55.60526762 47.87109375 55.46484375 C46.83662109 55.37783203 45.80214844 55.29082031 44.73632812 55.20117188 C43.64771484 55.11416016 42.55910156 55.02714844 41.4375 54.9375 C40.34501953 54.84662109 39.25253906 54.75574219 38.12695312 54.66210938 C35.41827508 54.43737189 32.70931834 54.21685911 30 54 C30 54.99 30 55.98 30 57 C32.64 57 35.28 57 38 57 C38 57.99 38 58.98 38 60 C35.36 60.33 32.72 60.66 30 61 C29.01 63.97 29.01 63.97 28 67 C26.68 67 25.36 67 24 67 C22.73762269 64.47524538 22.90143596 62.68799534 22.9375 59.875 C22.94652344 58.96492188 22.95554687 58.05484375 22.96484375 57.1171875 C22.97644531 56.41851562 22.98804688 55.71984375 23 55 C22.01 55 21.02 55 20 55 C20 57.64 20 60.28 20 63 C14.42857143 57.85714286 14.42857143 57.85714286 14 54 C13.01 54 12.02 54 11 54 C10.67 53.34 10.34 52.68 10 52 C9.505 54.475 9.505 54.475 9 57 C8.34 57 7.68 57 7 57 C7 56.01 7 55.02 7 54 C5.68 53.67 4.36 53.34 3 53 C3 53.66 3 54.32 3 55 C2.01 55 1.02 55 0 55 C0 36.85 0 18.7 0 0 Z " fill="#5DE1E7" transform="translate(273,0)"/>
<path d="M0 0 C3.18477997 0.0817921 4.35577719 0.19551813 7.0625 2 C8.625 4.375 8.625 4.375 9.4375 7.25 C10.88791922 11.06689267 12.79445261 12.53921885 15.96875 14.98046875 C17.625 16.375 17.625 16.375 19.625 19.375 C21.94981174 20.39465427 24.28294699 21.39559602 26.625 22.375 C28.25151522 25.62803044 27.73953156 28.76725602 27.625 32.375 C27.295 32.705 26.965 33.035 26.625 33.375 C26.38821284 36.06735776 26.20301975 38.73998156 26.0625 41.4375 C25.99772461 42.57541992 25.99772461 42.57541992 25.93164062 43.73632812 C25.82526367 45.61565438 25.72460066 47.49530244 25.625 49.375 C27.605 49.375 29.585 49.375 31.625 49.375 C31.625 51.685 31.625 53.995 31.625 56.375 C19.085 56.375 6.545 56.375 -6.375 56.375 C-6.375 54.065 -6.375 51.755 -6.375 49.375 C0.225 49.375 6.825 49.375 13.625 49.375 C13.4084375 45.724375 13.4084375 45.724375 13.1875 42 C13.14439697 41.23510254 13.10129395 40.47020508 13.05688477 39.68212891 C12.86290296 35.90318684 12.86290296 35.90318684 11.625 32.375 C11.026875 32.684375 10.42875 32.99375 9.8125 33.3125 C7.625 34.375 7.625 34.375 4.625 35.375 C4.625 36.035 4.625 36.695 4.625 37.375 C3.965 37.375 3.305 37.375 2.625 37.375 C2.625 38.035 2.625 38.695 2.625 39.375 C1.25 41 1.25 41 -0.375 42.375 C-1.035 42.375 -1.695 42.375 -2.375 42.375 C-2.74625 43.24125 -2.74625 43.24125 -3.125 44.125 C-4.55799988 46.70439979 -6.15924676 48.43621592 -8.375 50.375 C-9.035 50.375 -9.695 50.375 -10.375 50.375 C-10.375 51.035 -10.375 51.695 -10.375 52.375 C-11.035 52.375 -11.695 52.375 -12.375 52.375 C-13.035 53.695 -13.695 55.015 -14.375 56.375 C-15.035 56.375 -15.695 56.375 -16.375 56.375 C-16.62121094 56.9628125 -16.86742187 57.550625 -17.12109375 58.15625 C-18.96790122 61.42412117 -21.69236171 63.28212324 -24.59765625 65.59375 C-26.5384435 67.53880272 -26.99284865 68.69406128 -27.375 71.375 C-26.653125 71.91125 -25.93125 72.4475 -25.1875 73 C-22.375 75.375 -22.375 75.375 -17.375 81.375 C-57.965 81.375 -98.555 81.375 -140.375 81.375 C-140.375 75.435 -140.375 69.495 -140.375 63.375 C-155.225 63.045 -170.075 62.715 -185.375 62.375 C-185.375 62.045 -185.375 61.715 -185.375 61.375 C-181.745 61.375 -178.115 61.375 -174.375 61.375 C-174.045 60.385 -173.715 59.395 -173.375 58.375 C-170.735 58.705 -168.095 59.035 -165.375 59.375 C-165.375 58.715 -165.375 58.055 -165.375 57.375 C-167.025 57.045 -168.675 56.715 -170.375 56.375 C-170.375 55.055 -170.375 53.735 -170.375 52.375 C-171.035 52.375 -171.695 52.375 -172.375 52.375 C-172.87 54.85 -172.87 54.85 -173.375 57.375 C-177.40371475 58.41095522 -179.02555731 58.24488854 -183.375 57.375 C-183.375 53.745 -183.375 50.115 -183.375 46.375 C-184.695 46.375 -186.015 46.375 -187.375 46.375 C-187.375 45.715 -187.375 45.055 -187.375 44.375 C-184.60254986 44.24012405 -181.83662912 44.14099193 -179.0625 44.0625 C-178.27681641 44.02060547 -177.49113281 43.97871094 -176.68164062 43.93554688 C-174.4754013 43.88860561 -172.53165222 43.90163045 -170.375 44.375 C-168.02245532 47.16864681 -167.03605286 49.80531457 -166.375 53.375 C-165.385 53.375 -164.395 53.375 -163.375 53.375 C-163.375 52.055 -163.375 50.735 -163.375 49.375 C-160.735 49.375 -158.095 49.375 -155.375 49.375 C-155.375 48.385 -155.375 47.395 -155.375 46.375 C-158.015 46.375 -160.655 46.375 -163.375 46.375 C-163.375 45.715 -163.375 45.055 -163.375 44.375 C-161.91707116 44.32100264 -160.45857288 44.28220823 -159 44.25 C-158.18789062 44.22679687 -157.37578125 44.20359375 -156.5390625 44.1796875 C-154.375 44.375 -154.375 44.375 -152.375 46.375 C-152.6534375 48.0765625 -152.6534375 48.0765625 -152.9375 49.8125 C-153.081875 50.988125 -153.22625 52.16375 -153.375 53.375 C-152.04121425 55.2104799 -152.04121425 55.2104799 -150.375 56.375 C-150.375 57.035 -150.375 57.695 -150.375 58.375 C-147.075 58.375 -143.775 58.375 -140.375 58.375 C-140.375 57.715 -140.375 57.055 -140.375 56.375 C-141.468125 56.436875 -142.56125 56.49875 -143.6875 56.5625 C-147.375 56.375 -147.375 56.375 -149.3125 55.25 C-150.87922245 52.48519567 -150.76476435 50.49311483 -150.375 47.375 C-149.17578125 45.69921875 -149.17578125 45.69921875 -147.375 44.375 C-144.89453125 44.08203125 -144.89453125 44.08203125 -142.1875 44.1875 C-141.28644531 44.21457031 -140.38539063 44.24164063 -139.45703125 44.26953125 C-138.42642578 44.32173828 -138.42642578 44.32173828 -137.375 44.375 C-137.375 43.715 -137.375 43.055 -137.375 42.375 C-135.725 42.375 -134.075 42.375 -132.375 42.375 C-132.705 43.695 -133.035 45.015 -133.375 46.375 C-132.715 46.045 -132.055 45.715 -131.375 45.375 C-131.375 43.395 -131.375 41.415 -131.375 39.375 C-130.385 39.87 -130.385 39.87 -129.375 40.375 C-129.375 41.365 -129.375 42.355 -129.375 43.375 C-128.385 43.375 -127.395 43.375 -126.375 43.375 C-124.98828125 45.125 -124.98828125 45.125 -123.6875 47.375 C-123.25050781 48.1175 -122.81351562 48.86 -122.36328125 49.625 C-122.03714844 50.2025 -121.71101563 50.78 -121.375 51.375 C-121.045 49.065 -120.715 46.755 -120.375 44.375 C-119.385 44.375 -118.395 44.375 -117.375 44.375 C-116.88 50.315 -116.88 50.315 -116.375 56.375 C-115.055 56.375 -113.735 56.375 -112.375 56.375 C-111.715 54.065 -111.055 51.755 -110.375 49.375 C-107.735 49.375 -105.095 49.375 -102.375 49.375 C-102.375 48.385 -102.375 47.395 -102.375 46.375 C-105.015 46.375 -107.655 46.375 -110.375 46.375 C-110.375 45.385 -110.375 44.395 -110.375 43.375 C-104.72459396 43.2602062 -99.0824489 43.35287802 -93.4375 43.625 C-92.35597656 43.67140625 -91.27445312 43.7178125 -90.16015625 43.765625 C-87.375 44.375 -87.375 44.375 -85.5078125 46.1875 C-83.90392311 49.28466572 -84.17726373 51.94757135 -84.375 55.375 C-83.715 55.375 -83.055 55.375 -82.375 55.375 C-82.375 51.745 -82.375 48.115 -82.375 44.375 C-80.9725 44.354375 -79.57 44.33375 -78.125 44.3125 C-77.33609375 44.30089844 -76.5471875 44.28929687 -75.734375 44.27734375 C-73.46808998 44.37114694 -71.5461105 44.74258937 -69.375 45.375 C-68.88 44.385 -68.88 44.385 -68.375 43.375 C-67.715 43.375 -67.055 43.375 -66.375 43.375 C-66.375 42.715 -66.375 42.055 -66.375 41.375 C-80.565 41.045 -94.755 40.715 -109.375 40.375 C-109.375 40.045 -109.375 39.715 -109.375 39.375 C-82.645 39.375 -55.915 39.375 -28.375 39.375 C-28.375 38.715 -28.375 38.055 -28.375 37.375 C-27.715 37.375 -27.055 37.375 -26.375 37.375 C-26.375 35.395 -26.375 33.415 -26.375 31.375 C-25.715 31.375 -25.055 31.375 -24.375 31.375 C-24.375 30.715 -24.375 30.055 -24.375 29.375 C-23.715 29.375 -23.055 29.375 -22.375 29.375 C-22.54 28.529375 -22.705 27.68375 -22.875 26.8125 C-22.19468837 22.13535758 -20.0379478 20.96537923 -16.4765625 18.08984375 C-11.02987521 13.64542791 -8.66472071 8.91705917 -6.375 2.375 C-3.98213116 -0.01786884 -3.28052906 0.05449384 0 0 Z " fill="#5DB6F9" transform="translate(413.375,10.625)"/>
<path d="M0 0 C0 30.36 0 60.72 0 92 C-32.67 92 -65.34 92 -99 92 C-98.505 91.01 -98.505 91.01 -98 90 C-97.34 90 -96.68 90 -96 90 C-95.7525 89.4225 -95.505 88.845 -95.25 88.25 C-93.81700012 85.67060021 -92.21575324 83.93878408 -90 82 C-89.34 82 -88.68 82 -88 82 C-87.7525 81.4225 -87.505 80.845 -87.25 80.25 C-85.81700012 77.67060021 -84.21575324 75.93878408 -82 74 C-81.34 74 -80.68 74 -80 74 C-79.7525 73.4225 -79.505 72.845 -79.25 72.25 C-77.81700012 69.67060021 -76.21575324 67.93878408 -74 66 C-73.34 66 -72.68 66 -72 66 C-71.7525 65.4225 -71.505 64.845 -71.25 64.25 C-69.81700012 61.67060021 -68.21575324 59.93878408 -66 58 C-65.34 58 -64.68 58 -64 58 C-63.7525 57.4225 -63.505 56.845 -63.25 56.25 C-61.81700012 53.67060021 -60.21575324 51.93878408 -58 50 C-57.34 50 -56.68 50 -56 50 C-55.7525 49.4225 -55.505 48.845 -55.25 48.25 C-53.81700012 45.67060021 -52.21575324 43.93878408 -50 42 C-49.34 42 -48.68 42 -48 42 C-47.7525 41.4225 -47.505 40.845 -47.25 40.25 C-45.81700012 37.67060021 -44.21575324 35.93878408 -42 34 C-41.34 34 -40.68 34 -40 34 C-39.7525 33.4225 -39.505 32.845 -39.25 32.25 C-37.81700012 29.67060021 -36.21575324 27.93878408 -34 26 C-33.34 26 -32.68 26 -32 26 C-31.73123047 25.40670898 -31.46246094 24.81341797 -31.18554688 24.20214844 C-29.99709268 21.99459967 -28.79257611 20.53457118 -27.03125 18.765625 C-26.46019531 18.19199219 -25.88914062 17.61835938 -25.30078125 17.02734375 C-24.70652344 16.44082031 -24.11226562 15.85429687 -23.5 15.25 C-22.90574219 14.64800781 -22.31148437 14.04601562 -21.69921875 13.42578125 C-21.12816406 12.85730469 -20.55710937 12.28882813 -19.96875 11.703125 C-19.44732422 11.18395508 -18.92589844 10.66478516 -18.38867188 10.12988281 C-17 9 -17 9 -15 9 C-14.773125 8.443125 -14.54625 7.88625 -14.3125 7.3125 C-10.3323465 0.2998486 -8.46860881 0 0 0 Z " fill="#5DB6F9" transform="translate(546,0)"/>
<path d="M0 0 C3.18477997 0.0817921 4.35577719 0.19551813 7.0625 2 C8.625 4.375 8.625 4.375 9.4375 7.25 C10.88791922 11.06689267 12.79445261 12.53921885 15.96875 14.98046875 C17.625 16.375 17.625 16.375 19.625 19.375 C21.94981174 20.39465427 24.28294699 21.39559602 26.625 22.375 C28.25151522 25.62803044 27.73953156 28.76725602 27.625 32.375 C27.295 32.705 26.965 33.035 26.625 33.375 C26.38821284 36.06735776 26.20301975 38.73998156 26.0625 41.4375 C25.99772461 42.57541992 25.99772461 42.57541992 25.93164062 43.73632812 C25.82526367 45.61565438 25.72460066 47.49530244 25.625 49.375 C27.605 49.375 29.585 49.375 31.625 49.375 C31.625 51.685 31.625 53.995 31.625 56.375 C19.085 56.375 6.545 56.375 -6.375 56.375 C-6.375 54.065 -6.375 51.755 -6.375 49.375 C0.225 49.375 6.825 49.375 13.625 49.375 C13.4084375 45.724375 13.4084375 45.724375 13.1875 42 C13.12284546 40.85265381 13.12284546 40.85265381 13.05688477 39.68212891 C12.86290296 35.90318684 12.86290296 35.90318684 11.625 32.375 C11.026875 32.684375 10.42875 32.99375 9.8125 33.3125 C7.625 34.375 7.625 34.375 4.625 35.375 C4.625 36.035 4.625 36.695 4.625 37.375 C3.965 37.375 3.305 37.375 2.625 37.375 C2.625 38.035 2.625 38.695 2.625 39.375 C1.25 41 1.25 41 -0.375 42.375 C-1.035 42.375 -1.695 42.375 -2.375 42.375 C-2.74625 43.24125 -2.74625 43.24125 -3.125 44.125 C-4.55799988 46.70439979 -6.15924676 48.43621592 -8.375 50.375 C-9.035 50.375 -9.695 50.375 -10.375 50.375 C-10.375 51.035 -10.375 51.695 -10.375 52.375 C-11.035 52.375 -11.695 52.375 -12.375 52.375 C-13.035 53.695 -13.695 55.015 -14.375 56.375 C-17.015 56.375 -19.655 56.375 -22.375 56.375 C-22.684375 55.42625 -22.99375 54.4775 -23.3125 53.5 C-25.63742495 49.97738644 -26.15003367 49.83662802 -30.0625 49 C-31.49617128 48.76677118 -32.9331019 48.55032514 -34.375 48.375 C-33.385 50.85 -33.385 50.85 -32.375 53.375 C-30.395 53.375 -28.415 53.375 -26.375 53.375 C-26.375 54.365 -26.375 55.355 -26.375 56.375 C-30.335 56.375 -34.295 56.375 -38.375 56.375 C-38.375 57.035 -38.375 57.695 -38.375 58.375 C-39.695 58.375 -41.015 58.375 -42.375 58.375 C-42.40185095 55.89576199 -42.42176547 53.4168116 -42.4375 50.9375 C-42.44587891 50.23044922 -42.45425781 49.52339844 -42.46289062 48.79492188 C-42.47153588 46.98806441 -42.42720011 45.18112397 -42.375 43.375 C-42.045 43.045 -41.715 42.715 -41.375 42.375 C-56.83142876 41.59750405 -72.2774626 41.11474619 -87.75 40.8125 C-89.86589054 40.7691296 -91.98177601 40.72551081 -94.09765625 40.68164062 C-99.19005056 40.57658113 -104.28250043 40.47482147 -109.375 40.375 C-109.375 40.045 -109.375 39.715 -109.375 39.375 C-82.645 39.375 -55.915 39.375 -28.375 39.375 C-28.375 38.715 -28.375 38.055 -28.375 37.375 C-27.715 37.375 -27.055 37.375 -26.375 37.375 C-26.375 35.395 -26.375 33.415 -26.375 31.375 C-25.715 31.375 -25.055 31.375 -24.375 31.375 C-24.375 30.715 -24.375 30.055 -24.375 29.375 C-23.715 29.375 -23.055 29.375 -22.375 29.375 C-22.54 28.529375 -22.705 27.68375 -22.875 26.8125 C-22.19468837 22.13535758 -20.0379478 20.96537923 -16.4765625 18.08984375 C-11.02987521 13.64542791 -8.66472071 8.91705917 -6.375 2.375 C-3.98213116 -0.01786884 -3.28052906 0.05449384 0 0 Z " fill="#2C2C2D" transform="translate(413.375,10.625)"/>
<path d="M0 0 C0.66 0.33 1.32 0.66 2 1 C2 1.99 2 2.98 2 4 C2.99 4 3.98 4 5 4 C6.38671875 5.75 6.38671875 5.75 7.6875 8 C8.12449219 8.7425 8.56148438 9.485 9.01171875 10.25 C9.33785156 10.8275 9.66398437 11.405 10 12 C10.33 9.69 10.66 7.38 11 5 C11.99 5 12.98 5 14 5 C14.495 10.94 14.495 10.94 15 17 C16.32 17 17.64 17 19 17 C19.66 14.69 20.32 12.38 21 10 C23.64 10 26.28 10 29 10 C29 9.01 29 8.02 29 7 C26.36 7 23.72 7 21 7 C21 6.01 21 5.02 21 4 C26.65040604 3.8852062 32.2925511 3.97787802 37.9375 4.25 C39.55978516 4.31960937 39.55978516 4.31960937 41.21484375 4.390625 C44 5 44 5 45.89453125 6.859375 C47.45968333 9.89012885 46.81239026 11.75043897 46 15 C45.7215625 16.175625 45.7215625 16.175625 45.4375 17.375 C45.2209375 18.179375 45.2209375 18.179375 45 19 C44.01 19 43.02 19 42 19 C41.7215625 20.051875 41.7215625 20.051875 41.4375 21.125 C39.43949651 25.12100697 36.71267475 27.55232935 33 30 C30.67891331 30.70812814 28.34622853 31.38024152 26 32 C23.72808584 34.02040748 23.72808584 34.02040748 22 36 C21.34 36 20.68 36 20 36 C20 36.66 20 37.32 20 38 C19.01 38 18.02 38 17 38 C16.67 38.99 16.34 39.98 16 41 C13.44276771 42.27861615 11.63262898 42.11336609 8.7734375 42.09765625 C7.7421875 42.09443359 6.7109375 42.09121094 5.6484375 42.08789062 C4.56820312 42.07951172 3.48796875 42.07113281 2.375 42.0625 C0.74304688 42.05573242 0.74304688 42.05573242 -0.921875 42.04882812 C-3.61460662 42.0370179 -6.30731009 42.01908205 -9 42 C-9 36.06 -9 30.12 -9 24 C-23.85 23.67 -38.7 23.34 -54 23 C-54 22.67 -54 22.34 -54 22 C-50.37 22 -46.74 22 -43 22 C-42.67 21.01 -42.34 20.02 -42 19 C-39.36 19.33 -36.72 19.66 -34 20 C-34 19.34 -34 18.68 -34 18 C-35.65 17.67 -37.3 17.34 -39 17 C-39 15.68 -39 14.36 -39 13 C-39.66 13 -40.32 13 -41 13 C-41.33 14.65 -41.66 16.3 -42 18 C-46.02871475 19.03595522 -47.65055731 18.86988854 -52 18 C-52 14.37 -52 10.74 -52 7 C-53.32 7 -54.64 7 -56 7 C-56 6.34 -56 5.68 -56 5 C-53.22754986 4.86512405 -50.46162912 4.76599193 -47.6875 4.6875 C-46.50897461 4.6246582 -46.50897461 4.6246582 -45.30664062 4.56054688 C-43.1004013 4.51360561 -41.15665222 4.52663045 -39 5 C-36.64745532 7.79364681 -35.66105286 10.43031457 -35 14 C-34.01 14 -33.02 14 -32 14 C-32 12.68 -32 11.36 -32 10 C-29.36 10 -26.72 10 -24 10 C-24 9.01 -24 8.02 -24 7 C-26.64 7 -29.28 7 -32 7 C-32 6.34 -32 5.68 -32 5 C-30.54207116 4.94600264 -29.08357288 4.90720823 -27.625 4.875 C-26.81289062 4.85179687 -26.00078125 4.82859375 -25.1640625 4.8046875 C-23 5 -23 5 -21 7 C-21.2784375 8.7015625 -21.2784375 8.7015625 -21.5625 10.4375 C-21.706875 11.613125 -21.85125 12.78875 -22 14 C-20.66621425 15.8354799 -20.66621425 15.8354799 -19 17 C-19 17.66 -19 18.32 -19 19 C-15.7 19 -12.4 19 -9 19 C-9 18.34 -9 17.68 -9 17 C-10.093125 17.061875 -11.18625 17.12375 -12.3125 17.1875 C-16 17 -16 17 -17.9375 15.875 C-19.50422245 13.11019567 -19.38976435 11.11811483 -19 8 C-17.80078125 6.32421875 -17.80078125 6.32421875 -16 5 C-13.51953125 4.70703125 -13.51953125 4.70703125 -10.8125 4.8125 C-9.46091797 4.85310547 -9.46091797 4.85310547 -8.08203125 4.89453125 C-7.39496094 4.92933594 -6.70789063 4.96414062 -6 5 C-6 4.34 -6 3.68 -6 3 C-4.35 3 -2.7 3 -1 3 C-1.33 4.32 -1.66 5.64 -2 7 C-1.34 6.67 -0.68 6.34 0 6 C0 4.02 0 2.04 0 0 Z " fill="#5DE1E7" transform="translate(282,50)"/>
<path d="M0 0 C14.85 0 29.7 0 45 0 C43.85120554 4.59517784 42.79386581 5.40906725 39 8 C38.34 8 37.68 8 37 8 C36.9071875 8.86625 36.9071875 8.86625 36.8125 9.75 C35.66615826 12.92448483 33.74043158 14.12848575 31 16 C30.34 16 29.68 16 29 16 C28.62875 16.86625 28.62875 16.86625 28.25 17.75 C26.81700012 20.32939979 25.21575324 22.06121592 23 24 C22.34 24 21.68 24 21 24 C20.71125 24.598125 20.4225 25.19625 20.125 25.8125 C19 28 19 28 17 31 C12.71657993 30.52406444 10.84426611 28.05238315 8 25 C7.113125 24.195625 6.22625 23.39125 5.3125 22.5625 C2.78265144 19.7591543 2.0355523 17.58460411 1 14 C-1.3920839 11.6079161 -2.15138886 11.65423052 -5.4375 11.5625 C-7.83486229 11.55321594 -7.83486229 11.55321594 -10 12 C-12.10899032 14.38111811 -12.79782649 16.41455917 -13.82421875 19.38671875 C-15.14202325 22.31565965 -16.7165469 24.25477414 -18.875 26.625 C-19.55304688 27.38039063 -20.23109375 28.13578125 -20.9296875 28.9140625 C-23 31 -23 31 -25.2109375 32.57421875 C-27.3394718 33.96898744 -27.3394718 33.96898744 -27.75 37.1875 C-27.8325 38.115625 -27.915 39.04375 -28 40 C-28.66 40 -29.32 40 -30 40 C-30 40.66 -30 41.32 -30 42 C-30.66 42 -31.32 42 -32 42 C-32 43.98 -32 45.96 -32 48 C-32.66 48 -33.32 48 -34 48 C-34 48.66 -34 49.32 -34 50 C-44.56 50 -55.12 50 -66 50 C-61 46 -61 46 -59 46 C-59 45.01 -59 44.02 -59 43 C-55.62637846 40.39749195 -53.23092172 39.63734957 -49 40 C-49 39.34 -49 38.68 -49 38 C-47.125 35.875 -47.125 35.875 -45 34 C-44.34 34 -43.68 34 -43 34 C-43 32.68 -43 31.36 -43 30 C-39.83175607 27.55592611 -36.93370357 26.56195765 -33 26 C-33 25.34 -33 24.68 -33 24 C-31.02 23.34 -29.04 22.68 -27 22 C-27 21.01 -27 20.02 -27 19 C-21.25 16 -21.25 16 -19 16 C-19 15.01 -19 14.02 -19 13 C-18.34 13 -17.68 13 -17 13 C-16.67 12.34 -16.34 11.68 -16 11 C-15.01 11 -14.02 11 -13 11 C-13 10.34 -13 9.68 -13 9 C-12.34 9 -11.68 9 -11 9 C-11 8.01 -11 7.02 -11 6 C-9.73308493 5.32591692 -8.46129251 4.66099503 -7.1875 4 C-6.47980469 3.62875 -5.77210938 3.2575 -5.04296875 2.875 C-3 2 -3 2 0 2 C0 1.34 0 0.68 0 0 Z " fill="#5EB5F7" transform="translate(419,0)"/>
<path d="M0 0 C0.95335236 0.04129028 1.90670471 0.08258057 2.88894653 0.12512207 C3.87927887 0.13644165 4.86961121 0.14776123 5.88995361 0.15942383 C9.04005869 0.20405987 12.18554027 0.30439707 15.33425903 0.40637207 C17.47481809 0.44651565 19.61544881 0.48301488 21.75613403 0.51574707 C26.99370397 0.5969497 32.22133602 0.75344001 37.45925903 0.90637207 C37.45925903 7.83637207 37.45925903 14.76637207 37.45925903 21.90637207 C16.33925903 21.90637207 -4.78074097 21.90637207 -26.54074097 21.90637207 C-22.96330839 16.5402232 -20.94157622 14.44405007 -15.95480347 11.00793457 C-13.62924646 8.98342054 -12.62279662 7.40979768 -11.04171753 4.82385254 C-7.79284204 0.4598527 -5.29860565 -0.00355551 0 0 Z " fill="#F0F4FB" transform="translate(508.5407409667969,70.0936279296875)"/>
<path d="M0 0 C3.18477997 0.0817921 4.35577719 0.19551813 7.0625 2 C8.625 4.375 8.625 4.375 9.4375 7.25 C10.88791922 11.06689267 12.79445261 12.53921885 15.96875 14.98046875 C17.625 16.375 17.625 16.375 19.625 19.375 C21.94981174 20.39465427 24.28294699 21.39559602 26.625 22.375 C27.97939668 25.08379335 27.69001451 27.38433268 27.625 30.375 C27.3775 29.7975 27.13 29.22 26.875 28.625 C25.3682025 25.91276451 24.11256387 24.25748076 21.625 22.375 C17.9574787 22.04082071 17.9574787 22.04082071 14.625 22.375 C15.615 20.89 15.615 20.89 16.625 19.375 C15.50311441 18.22611717 14.37738316 17.08098863 13.25 15.9375 C12.62351562 15.29941406 11.99703125 14.66132813 11.3515625 14.00390625 C9.70776939 12.29617824 9.70776939 12.29617824 7.625 11.375 C6.965 12.695 6.305 14.015 5.625 15.375 C4.635 14.88 4.635 14.88 3.625 14.375 C4.285 13.715 4.945 13.055 5.625 12.375 C5.95252234 9.66045044 5.7558425 7.12269241 5.625 4.375 C3.73371658 2.48371658 1.05432274 3.1383148 -1.46484375 3.046875 C-2.09519531 3.15515625 -2.72554688 3.2634375 -3.375 3.375 C-5.63989372 6.19032057 -5.63989372 6.19032057 -5.4375 9.375 C-4.71240729 12.3925788 -4.71240729 12.3925788 -2.7421875 13.4296875 C-0.99090829 14.17415842 0.8164425 14.78310846 2.625 15.375 C2.026875 15.66375 1.42875 15.9525 0.8125 16.25 C-1.56827792 17.42242026 -1.56827792 17.42242026 -4.375 19.375 C-5.365 15.91 -5.365 15.91 -6.375 12.375 C-9.015 14.685 -11.655 16.995 -14.375 19.375 C-13.88 21.355 -13.88 21.355 -13.375 23.375 C-15.375 23.375 -17.375 23.375 -19.375 23.375 C-19.87 25.85 -19.87 25.85 -20.375 28.375 C-18.395 28.375 -16.415 28.375 -14.375 28.375 C-14.375 28.705 -14.375 29.035 -14.375 29.375 C-15.509375 29.519375 -16.64375 29.66375 -17.8125 29.8125 C-21.18277201 29.98671478 -21.18277201 29.98671478 -22.375 31.375 C-22.60692865 32.88969448 -22.78715238 34.41254562 -22.9375 35.9375 C-23.06318359 37.17693359 -23.06318359 37.17693359 -23.19140625 38.44140625 C-23.25199219 39.07949219 -23.31257813 39.71757813 -23.375 40.375 C-22.715 40.375 -22.055 40.375 -21.375 40.375 C-21.375 37.735 -21.375 35.095 -21.375 32.375 C-18.735 32.375 -16.095 32.375 -13.375 32.375 C-13.375 31.715 -13.375 31.055 -13.375 30.375 C-12.385 30.375 -11.395 30.375 -10.375 30.375 C-10.26667831 32.45718362 -10.18926459 34.54099129 -10.125 36.625 C-10.07859375 37.78515625 -10.0321875 38.9453125 -9.984375 40.140625 C-10.375 43.375 -10.375 43.375 -12.15625 45.8125 C-14.375 47.375 -14.375 47.375 -18.125 47.125 C-19.1975 46.8775 -20.27 46.63 -21.375 46.375 C-21.045 47.035 -20.715 47.695 -20.375 48.375 C-18.0609378 49.10575648 -15.72671131 49.77638258 -13.375 50.375 C-13.332279 52.04111905 -13.33436168 53.70882885 -13.375 55.375 C-14.375 56.375 -14.375 56.375 -16.22265625 56.47265625 C-18.2734375 56.44010417 -20.32421875 56.40755208 -22.375 56.375 C-22.684375 55.42625 -22.99375 54.4775 -23.3125 53.5 C-25.63742495 49.97738644 -26.15003367 49.83662802 -30.0625 49 C-31.49617128 48.76677118 -32.9331019 48.55032514 -34.375 48.375 C-33.385 50.85 -33.385 50.85 -32.375 53.375 C-30.395 53.375 -28.415 53.375 -26.375 53.375 C-26.375 54.365 -26.375 55.355 -26.375 56.375 C-30.335 56.375 -34.295 56.375 -38.375 56.375 C-38.375 57.035 -38.375 57.695 -38.375 58.375 C-39.695 58.375 -41.015 58.375 -42.375 58.375 C-42.40185095 55.89576199 -42.42176547 53.4168116 -42.4375 50.9375 C-42.44587891 50.23044922 -42.45425781 49.52339844 -42.46289062 48.79492188 C-42.47153588 46.98806441 -42.42720011 45.18112397 -42.375 43.375 C-42.045 43.045 -41.715 42.715 -41.375 42.375 C-56.83142876 41.59750405 -72.2774626 41.11474619 -87.75 40.8125 C-89.86589054 40.7691296 -91.98177601 40.72551081 -94.09765625 40.68164062 C-99.19005056 40.57658113 -104.28250043 40.47482147 -109.375 40.375 C-109.375 40.045 -109.375 39.715 -109.375 39.375 C-82.645 39.375 -55.915 39.375 -28.375 39.375 C-28.375 38.715 -28.375 38.055 -28.375 37.375 C-27.715 37.375 -27.055 37.375 -26.375 37.375 C-26.375 35.395 -26.375 33.415 -26.375 31.375 C-25.715 31.375 -25.055 31.375 -24.375 31.375 C-24.375 30.715 -24.375 30.055 -24.375 29.375 C-23.715 29.375 -23.055 29.375 -22.375 29.375 C-22.54 28.529375 -22.705 27.68375 -22.875 26.8125 C-22.19468837 22.13535758 -20.0379478 20.96537923 -16.4765625 18.08984375 C-11.02987521 13.64542791 -8.66472071 8.91705917 -6.375 2.375 C-3.98213116 -0.01786884 -3.28052906 0.05449384 0 0 Z " fill="#3C85AE" transform="translate(413.375,10.625)"/>
<path d="M0 0 C0.66 1.65 1.32 3.3 2 5 C2.66 5 3.32 5 4 5 C9.30675087 5.5737028 12.23949803 8.05087281 15.75 11.9375 C17.17479434 14.28841066 17.62397439 16.29261562 18 19 C13.25 23 13.25 23 11 23 C11 23.66 11 24.32 11 25 C10.34 25 9.68 25 9 25 C9 25.66 9 26.32 9 27 C7.625 28.625 7.625 28.625 6 30 C5.34 30 4.68 30 4 30 C3.7525 30.5775 3.505 31.155 3.25 31.75 C1.81700012 34.32939979 0.21575324 36.06121592 -2 38 C-2.66 38 -3.32 38 -4 38 C-4 38.66 -4 39.32 -4 40 C-4.66 40 -5.32 40 -6 40 C-6.33 40.66 -6.66 41.32 -7 42 C-7 40.68 -7 39.36 -7 38 C-9.31 37.67 -11.62 37.34 -14 37 C-14.495 35.515 -14.495 35.515 -15 34 C-13.88625 34.061875 -12.7725 34.12375 -11.625 34.1875 C-10.42875 34.125625 -9.2325 34.06375 -8 34 C-7.34 33.01 -6.68 32.02 -6 31 C-5.34 31 -4.68 31 -4 31 C-4 26.71 -4 22.42 -4 18 C-4.66 18.33 -5.32 18.66 -6 19 C-6 21.97 -6 24.94 -6 28 C-6.33 28 -6.66 28 -7 28 C-7 25.36 -7 22.72 -7 20 C-9.64 20 -12.28 20 -15 20 C-15 22.64 -15 25.28 -15 28 C-15.66 28 -16.32 28 -17 28 C-17.08131463 26.56344146 -17.13933559 25.1255517 -17.1875 23.6875 C-17.22230469 22.88699219 -17.25710938 22.08648437 -17.29296875 21.26171875 C-16.93297339 18.48255457 -16.01385144 17.84603049 -14 16 C-13.74930087 13.37429296 -13.74930087 13.37429296 -14 11 C-11.92446352 10.4465236 -10.15634036 10 -8 10 C-8 8.68 -8 7.36 -8 6 C-6.7578125 4.296875 -6.7578125 4.296875 -5.125 2.75 C-4.32449219 1.96882813 -4.32449219 1.96882813 -3.5078125 1.171875 C-2 0 -2 0 0 0 Z " fill="#5FB3F1" transform="translate(407,23)"/>
<path d="M0 0 C3.69960585 1.85333983 5.7161719 4.57425785 8 8 C8.71970304 12.86217986 8.507685 16.90340041 6.4375 21.375 C3.00470332 25.07185797 -0.04490211 27.78892158 -5.2421875 28.16015625 C-10.43693061 27.80159654 -13.92977924 26.37530502 -18 23 C-20.8456159 18.73157615 -20.50004005 15.0082136 -20 10 C-16.52923495 0.13572039 -9.71306413 -1.55093582 0 0 Z " fill="#77B6E4" transform="translate(209,48)"/>
<path d="M0 0 C5.65040604 -0.1147938 11.2925511 -0.02212198 16.9375 0.25 C18.55978516 0.31960937 18.55978516 0.31960937 20.21484375 0.390625 C23 1 23 1 24.890625 2.8515625 C26.46236043 5.89541633 25.91350533 7.76759652 25 11 C23 13 23 13 21.0546875 13.1953125 C19.03645833 13.13020833 17.01822917 13.06510417 15 13 C14.67 13.99 14.34 14.98 14 16 C12.9275 16.144375 11.855 16.28875 10.75 16.4375 C8.08337051 16.83749442 5.58600271 17.27591924 3 18 C3 17.34 3 16.68 3 16 C2.01 16.33 1.02 16.66 0 17 C-0.66 16.67 -1.32 16.34 -2 16 C-1.85950482 14.52031676 -1.71245174 13.04125484 -1.5625 11.5625 C-1.48128906 10.73878906 -1.40007812 9.91507813 -1.31640625 9.06640625 C-1 7 -1 7 0 6 C2.67058851 5.85884839 5.32432238 5.95752893 8 6 C8 5.01 8 4.02 8 3 C5.36 3 2.72 3 0 3 C0 2.01 0 1.02 0 0 Z " fill="#5ED9DD" transform="translate(303,54)"/>
<path d="M0 0 C2.77245014 -0.13487595 5.53837088 -0.23400807 8.3125 -0.3125 C9.49102539 -0.3753418 9.49102539 -0.3753418 10.69335938 -0.43945312 C12.8995987 -0.48639439 14.84334778 -0.47336955 17 0 C19.35254468 2.79364681 20.33894714 5.43031457 21 9 C21.99 9 22.98 9 24 9 C24 7.68 24 6.36 24 5 C26.64 5 29.28 5 32 5 C32 4.01 32 3.02 32 2 C29.36 2 26.72 2 24 2 C24 1.34 24 0.68 24 0 C25.45792884 -0.05399736 26.91642712 -0.09279177 28.375 -0.125 C29.18710938 -0.14820313 29.99921875 -0.17140625 30.8359375 -0.1953125 C33 0 33 0 35 2 C34.70241581 4.3381615 34.36760731 6.67182036 34 9 C34.495 10.485 34.495 10.485 35 12 C34.01 12 33.02 12 32 12 C31.34 11.01 30.68 10.02 30 9 C29.01 8.67 28.02 8.34 27 8 C27 9.65 27 11.3 27 13 C22.94568308 14.15837626 20.78187881 13.83691257 17 12 C17 10.68 17 9.36 17 8 C16.34 8 15.68 8 15 8 C14.67 9.65 14.34 11.3 14 13 C9.97128525 14.03595522 8.34944269 13.86988854 4 13 C4 9.37 4 5.74 4 2 C2.68 2 1.36 2 0 2 C0 1.34 0 0.68 0 0 Z " fill="#5FA5DA" transform="translate(226,55)"/>
<path d="M0 0 C3.18477997 0.0817921 4.35577719 0.19551813 7.0625 2 C8.625 4.375 8.625 4.375 9.4375 7.25 C10.88791922 11.06689267 12.79445261 12.53921885 15.96875 14.98046875 C17.625 16.375 17.625 16.375 19.625 19.375 C21.94981174 20.39465427 24.28294699 21.39559602 26.625 22.375 C27.97939668 25.08379335 27.69001451 27.38433268 27.625 30.375 C27.3775 29.7975 27.13 29.22 26.875 28.625 C25.3682025 25.91276451 24.11256387 24.25748076 21.625 22.375 C17.9574787 22.04082071 17.9574787 22.04082071 14.625 22.375 C15.285 21.385 15.945 20.395 16.625 19.375 C15.50311441 18.22611717 14.37738316 17.08098863 13.25 15.9375 C12.62351562 15.29941406 11.99703125 14.66132813 11.3515625 14.00390625 C9.70776939 12.29617824 9.70776939 12.29617824 7.625 11.375 C6.965 12.695 6.305 14.015 5.625 15.375 C4.965 15.045 4.305 14.715 3.625 14.375 C4.285 13.715 4.945 13.055 5.625 12.375 C5.95252234 9.66045044 5.7558425 7.12269241 5.625 4.375 C3.73371658 2.48371658 1.05432274 3.1383148 -1.46484375 3.046875 C-2.09519531 3.15515625 -2.72554688 3.2634375 -3.375 3.375 C-5.63989372 6.19032057 -5.63989372 6.19032057 -5.4375 9.375 C-4.71240729 12.3925788 -4.71240729 12.3925788 -2.7421875 13.4296875 C-0.99090829 14.17415842 0.8164425 14.78310846 2.625 15.375 C2.026875 15.66375 1.42875 15.9525 0.8125 16.25 C-1.56827792 17.42242026 -1.56827792 17.42242026 -4.375 19.375 C-5.035 17.065 -5.695 14.755 -6.375 12.375 C-9.015 14.685 -11.655 16.995 -14.375 19.375 C-14.045 20.695 -13.715 22.015 -13.375 23.375 C-15.375 23.375 -17.375 23.375 -19.375 23.375 C-19.705 25.025 -20.035 26.675 -20.375 28.375 C-18.395 28.375 -16.415 28.375 -14.375 28.375 C-14.375 28.705 -14.375 29.035 -14.375 29.375 C-16.0765625 29.5915625 -16.0765625 29.5915625 -17.8125 29.8125 C-21.18277201 29.98671478 -21.18277201 29.98671478 -22.375 31.375 C-22.60692865 32.88969448 -22.78715238 34.41254562 -22.9375 35.9375 C-23.02128906 36.76378906 -23.10507812 37.59007812 -23.19140625 38.44140625 C-23.25199219 39.07949219 -23.31257813 39.71757813 -23.375 40.375 C-22.715 40.375 -22.055 40.375 -21.375 40.375 C-21.375 37.735 -21.375 35.095 -21.375 32.375 C-18.735 32.375 -16.095 32.375 -13.375 32.375 C-13.375 31.715 -13.375 31.055 -13.375 30.375 C-12.385 30.375 -11.395 30.375 -10.375 30.375 C-10.375 34.665 -10.375 38.955 -10.375 43.375 C-12.025 42.715 -13.675 42.055 -15.375 41.375 C-15.375 38.735 -15.375 36.095 -15.375 33.375 C-16.695 33.375 -18.015 33.375 -19.375 33.375 C-19.313125 34.65375 -19.25125 35.9325 -19.1875 37.25 C-19.08203125 39.4296875 -19.08203125 39.4296875 -19.375 41.375 C-22.375 43.375 -22.375 43.375 -25.375 43.375 C-25.40194851 41.41674127 -25.42137218 39.45837774 -25.4375 37.5 C-25.44910156 36.40945312 -25.46070313 35.31890625 -25.47265625 34.1953125 C-25.375 31.375 -25.375 31.375 -24.375 29.375 C-23.715 29.375 -23.055 29.375 -22.375 29.375 C-22.54 28.529375 -22.705 27.68375 -22.875 26.8125 C-22.19468837 22.13535758 -20.0379478 20.96537923 -16.4765625 18.08984375 C-11.02987521 13.64542791 -8.66472071 8.91705917 -6.375 2.375 C-3.98213116 -0.01786884 -3.28052906 0.05449384 0 0 Z " fill="#0B182B" transform="translate(413.375,10.625)"/>
<path d="M0 0 C7.92 0 15.84 0 24 0 C24 0.99 24 1.98 24 3 C22.68 3 21.36 3 20 3 C20 6.3 20 9.6 20 13 C18.68 13.144375 17.36 13.28875 16 13.4375 C14.77410156 13.57671875 14.77410156 13.57671875 13.5234375 13.71875 C11.92570948 13.89682495 10.32679296 14.06477594 8.7265625 14.21875 C5.0974641 14.59650002 3.0922709 14.93848606 0 17 C-0.99 17 -1.98 17 -3 17 C-3 16.34 -3 15.68 -3 15 C-2.01 14.67 -1.02 14.34 0 14 C-0.08378906 13.40832031 -0.16757812 12.81664063 -0.25390625 12.20703125 C-0.35574219 11.41683594 -0.45757812 10.62664062 -0.5625 9.8125 C-0.66691406 9.03519531 -0.77132813 8.25789063 -0.87890625 7.45703125 C-1 5 -1 5 0 0 Z " fill="#60ADE7" transform="translate(345,54)"/>
<path d="M0 0 C23.265 0.495 23.265 0.495 47 1 C46.01 1.33 45.02 1.66 44 2 C44 2.66 44 3.32 44 4 C42 6 42 6 39 7 C38.34 6.67 37.68 6.34 37 6 C35.46331135 5.77532169 33.92031946 5.59203195 32.375 5.4375 C30.93125 5.293125 29.4875 5.14875 28 5 C28 8.63 28 12.26 28 16 C27.34 16 26.68 16 26 16 C25.80083984 15.04287109 25.80083984 15.04287109 25.59765625 14.06640625 C25.33275391 12.82697266 25.33275391 12.82697266 25.0625 11.5625 C24.88847656 10.73878906 24.71445312 9.91507813 24.53515625 9.06640625 C24.19247006 7.02338796 24.19247006 7.02338796 23 6 C21.2962092 5.77246643 19.58426501 5.60526762 17.87109375 5.46484375 C16.83662109 5.37783203 15.80214844 5.29082031 14.73632812 5.20117188 C13.1034082 5.0706543 13.1034082 5.0706543 11.4375 4.9375 C10.34501953 4.84662109 9.25253906 4.75574219 8.12695312 4.66210938 C5.41827508 4.43737189 2.70931834 4.21685911 0 4 C0 4.99 0 5.98 0 7 C2.64 7 5.28 7 8 7 C8 7.99 8 8.98 8 10 C5.36 10 2.72 10 0 10 C0 9.34 0 8.68 0 8 C-1.32 8 -2.64 8 -4 8 C-4.66 6.68 -5.32 5.36 -6 4 C-5.34 3.67 -4.68 3.34 -4 3 C-3.34 3.33 -2.68 3.66 -2 4 C-2 3.34 -2 2.68 -2 2 C-1.34 2 -0.68 2 0 2 C0 1.34 0 0.68 0 0 Z " fill="#66DBE1" transform="translate(303,50)"/>
<path d="M0 0 C3.69960585 1.85333983 5.7161719 4.57425785 8 8 C8.71970304 12.86217986 8.507685 16.90340041 6.4375 21.375 C3.00470332 25.07185797 -0.04490211 27.78892158 -5.2421875 28.16015625 C-10.43693061 27.80159654 -13.92977924 26.37530502 -18 23 C-20.8456159 18.73157615 -20.50004005 15.0082136 -20 10 C-16.52923495 0.13572039 -9.71306413 -1.55093582 0 0 Z M-3 3 C-3.33 3.33 -3.66 3.66 -4 4 C-6.51708673 4.20299087 -9.0317619 4.31912696 -11.5546875 4.42578125 C-14.11629031 4.80079911 -14.11629031 4.80079911 -15.796875 6.796875 C-17.61313744 10.12275816 -17.5316739 13.34383156 -17 17 C-15.24086879 21.16636339 -13.16636339 23.24086879 -9 25 C-3.94989533 25.64128313 -2.0184244 25.57402103 2.4375 23.0625 C5.76028554 19.09136606 6.24992224 16.0910086 6 11 C5.22356573 7.75309304 4.48709495 6.45566947 2.0625 4.1875 C-0.03665638 2.75051778 -0.03665638 2.75051778 -3 3 Z " fill="#E5F5FA" transform="translate(209,48)"/>
<path d="M0 0 C0.33 0 0.66 0 1 0 C1 3.96 1 7.92 1 12 C2.98 11.34 4.96 10.68 7 10 C7 7.36 7 4.72 7 2 C8.32 2 9.64 2 11 2 C11 4.64 11 7.28 11 10 C11.99 10.33 12.98 10.66 14 11 C13.34 12.65 12.68 14.3 12 16 C9.69 15.67 7.38 15.34 5 15 C5.33 15.66 5.66 16.32 6 17 C8.3140622 17.73075648 10.64828869 18.40138258 13 19 C13.042721 20.66611905 13.04063832 22.33382885 13 24 C12 25 12 25 10.15234375 25.09765625 C8.1015625 25.06510417 6.05078125 25.03255208 4 25 C3.690625 24.05125 3.38125 23.1025 3.0625 22.125 C0.73757505 18.60238644 0.22496633 18.46162802 -3.6875 17.625 C-5.12117128 17.39177118 -6.5581019 17.17532514 -8 17 C-7.67 16.34 -7.34 15.68 -7 15 C-4.36 15.33 -1.72 15.66 1 16 C0.67 15.34 0.34 14.68 0 14 C-2.32156597 13.59270772 -4.6568787 13.25561323 -7 13 C-5.68 12.67 -4.36 12.34 -3 12 C-2.67 10.02 -2.34 8.04 -2 6 C-1.34 6 -0.68 6 0 6 C0 4.02 0 2.04 0 0 Z " fill="#62A7DD" transform="translate(387,42)"/>
<path d="M0 0 C1.65 0 3.3 0 5 0 C4.67 4.95 4.34 9.9 4 15 C3.34 15 2.68 15 2 15 C1.67 15.99 1.34 16.98 1 18 C0.34 17.67 -0.32 17.34 -1 17 C-1 16.34 -1 15.68 -1 15 C-1.61488281 14.96261719 -2.22976563 14.92523438 -2.86328125 14.88671875 C-3.67152344 14.82097656 -4.47976563 14.75523438 -5.3125 14.6875 C-6.11300781 14.62949219 -6.91351563 14.57148437 -7.73828125 14.51171875 C-10.41442366 13.90623575 -11.36842328 13.18061524 -13 11 C-13.63847487 5.89220104 -13.63847487 5.89220104 -11.80078125 3.32421875 C-9.37182453 1.53806619 -7.79277437 1.69638541 -4.8125 1.8125 C-3.91144531 1.83957031 -3.01039063 1.86664063 -2.08203125 1.89453125 C-1.05142578 1.94673828 -1.05142578 1.94673828 0 2 C0 1.34 0 0.68 0 0 Z " fill="#5FD0D4" transform="translate(276,53)"/>
<path d="M0 0 C1.9375 0.3125 1.9375 0.3125 4 1 C4.33 1.99 4.66 2.98 5 4 C6.65 4 8.3 4 10 4 C10 4.66 10 5.32 10 6 C13.3 6 16.6 6 20 6 C20 6.99 20 7.98 20 9 C27.26 9 34.52 9 42 9 C42 9.33 42 9.66 42 10 C19.89 10 -2.22 10 -25 10 C-25 9.67 -25 9.34 -25 9 C-21.37 9 -17.74 9 -14 9 C-13.67 8.01 -13.34 7.02 -13 6 C-11.14375 6.0309375 -11.14375 6.0309375 -9.25 6.0625 C-6.3359175 6.06766681 -3.79046673 5.93015558 -1 5 C-0.67 3.35 -0.34 1.7 0 0 Z " fill="#4792C1" transform="translate(253,63)"/>
<path d="M0 0 C2.17647059 4.35294118 2.17647059 4.35294118 1.4375 7.0625 C-0.4115483 9.55469553 -2.46409666 11.22486766 -5 13 C-5.66 13 -6.32 13 -7 13 C-6.34 14.65 -5.68 16.3 -5 18 C-5.33 18.33 -5.66 18.66 -6 19 C-6.07179964 20.51928038 -6.08392007 22.04167482 -6.0625 23.5625 C-6.05347656 24.38878906 -6.04445313 25.21507813 -6.03515625 26.06640625 C-6.02355469 26.70449219 -6.01195312 27.34257813 -6 28 C-6.33 28 -6.66 28 -7 28 C-7 25.36 -7 22.72 -7 20 C-9.64 20 -12.28 20 -15 20 C-15 22.64 -15 25.28 -15 28 C-15.66 28 -16.32 28 -17 28 C-17.08131463 26.56344146 -17.13933559 25.1255517 -17.1875 23.6875 C-17.22230469 22.88699219 -17.25710938 22.08648437 -17.29296875 21.26171875 C-16.93297339 18.48255457 -16.01385144 17.84603049 -14 16 C-13.74930087 13.37429296 -13.74930087 13.37429296 -14 11 C-11.92446352 10.4465236 -10.15634036 10 -8 10 C-8 8.68 -8 7.36 -8 6 C-6.7578125 4.296875 -6.7578125 4.296875 -5.125 2.75 C-4.32449219 1.96882813 -4.32449219 1.96882813 -3.5078125 1.171875 C-2 0 -2 0 0 0 Z " fill="#0F1B29" transform="translate(407,23)"/>
<path d="M0 0 C3.69230769 0.69230769 3.69230769 0.69230769 5 2 C5.04063832 3.66617115 5.042721 5.33388095 5 7 C3.68 7 2.36 7 1 7 C0.34 6.01 -0.32 5.02 -1 4 C-3.19454681 3.42006301 -3.19454681 3.42006301 -5.625 3.3125 C-6.44226563 3.24675781 -7.25953125 3.18101563 -8.1015625 3.11328125 C-8.72804687 3.07589844 -9.35453125 3.03851563 -10 3 C-10 4.32 -10 5.64 -10 7 C-8.35 7 -6.7 7 -5 7 C-5 11.62 -5 16.24 -5 21 C-10.81818182 19.83636364 -10.81818182 19.83636364 -13 17 C-14.21439799 13.35680603 -14.61130827 9.79156675 -14 6 C-12.8046875 3.7890625 -12.8046875 3.7890625 -11 2 C-8.5546875 1.42578125 -8.5546875 1.42578125 -5.875 1.3125 C-2.6310559 1.41422594 -2.6310559 1.41422594 0 0 Z " fill="#63B5F1" transform="translate(206,51)"/>
<path d="M0 0 C3.7109611 0.31991044 4.99743948 0.7900419 7.625 3.3125 C6.875 10.0625 6.875 10.0625 4.625 12.3125 C-2.5122549 12.99223856 -2.5122549 12.99223856 -5.4375 10.6875 C-6.69356608 7.50546594 -6.29570253 5.57037048 -5.375 2.3125 C-3.375 0.3125 -3.375 0.3125 0 0 Z " fill="#0C1724" transform="translate(350.375,54.6875)"/>
<path d="M0 0 C0.70125 0.00515625 1.4025 0.0103125 2.125 0.015625 C2.82625 0.01046875 3.5275 0.0053125 4.25 0 C6.125 0.265625 6.125 0.265625 8.125 2.265625 C8.80473856 9.4028799 8.80473856 9.4028799 6.5 12.328125 C3.25221302 13.61014618 1.43203161 13.32106062 -1.875 12.265625 C-3.8125 10.578125 -3.8125 10.578125 -4.875 8.265625 C-4.41660363 0.62568551 -4.41660363 0.62568551 0 0 Z " fill="#639CC6" transform="translate(411.875,12.734375)"/>
<path d="M0 0 C2 2 2 2 2.3125 5.4375 C2 9 2 9 0.9375 10.9375 C-2.15493758 12.63335287 -4.55514741 12.43060657 -8 12 C-10 10.375 -10 10.375 -11 8 C-10.87230149 4.87138639 -10.44822217 2.77193818 -8.875 0.0625 C-5.80365094 -1.67793113 -3.31631617 -0.78385655 0 0 Z " fill="#1C1D21" transform="translate(437,33)"/>
<path d="M0 0 C4.29 0.66 8.58 1.32 13 2 C13 1.34 13 0.68 13 0 C13.99 0 14.98 0 16 0 C16 0.99 16 1.98 16 3 C16.66 2.67 17.32 2.34 18 2 C20.3329866 1.95977609 22.66706666 1.95679753 25 2 C25 2.66 25 3.32 25 4 C23.88625 4.12375 22.7725 4.2475 21.625 4.375 C17.96896323 4.6465813 17.96896323 4.6465813 16 7 C15.66666667 10 15.66666667 10 16 13 C18.76223278 15.76223278 21.20706617 15.57856291 25 16 C25 16.66 25 17.32 25 18 C18.375 19.125 18.375 19.125 15 18 C15 17.34 15 16.68 15 16 C14.01 15.67 13.02 15.34 12 15 C11.14222451 11.56889804 11.03308536 9.38420123 12 6 C10.94021067 4.71387324 10.94021067 4.71387324 8.49609375 4.90234375 C7.48675781 4.91394531 6.47742188 4.92554688 5.4375 4.9375 C4.42558594 4.94652344 3.41367188 4.95554687 2.37109375 4.96484375 C1.58863281 4.97644531 0.80617187 4.98804688 0 5 C0 3.35 0 1.7 0 0 Z " fill="#60A7DD" transform="translate(248,51)"/>
<path d="M0 0 C2 1.625 2 1.625 3 4 C2.77962372 7.67293796 2.63033454 9.36966546 0 12 C-6.05240175 12.55021834 -6.05240175 12.55021834 -8.9375 10.875 C-10.50422245 8.11019567 -10.38976435 6.11811483 -10 3 C-7.72375139 -1.01690931 -4.20725277 -0.5259066 0 0 Z " fill="#0B1E23" transform="translate(326,55)"/>
<path d="M0 0 C0.99 0.33 1.98 0.66 3 1 C3 1.99 3 2.98 3 4 C2.34 4 1.68 4 1 4 C0.67 4.66 0.34 5.32 0 6 C-0.66 5.67 -1.32 5.34 -2 5 C-2.33 5.99 -2.66 6.98 -3 8 C-3.66 8.66 -4.32 9.32 -5 10 C-4.34 10.33 -3.68 10.66 -3 11 C-3 11.66 -3 12.32 -3 13 C-4.1446875 13.6496875 -4.1446875 13.6496875 -5.3125 14.3125 C-8.31928549 16.20048159 -9.39854927 17.88138542 -11 21 C-12.32 20.34 -13.64 19.68 -15 19 C-15.33 20.32 -15.66 21.64 -16 23 C-16.66 22.34 -17.32 21.68 -18 21 C-17.9375 19.125 -17.9375 19.125 -17 17 C-15.35648543 15.63823078 -13.68477344 14.31037934 -12 13 C-10.41893375 11.26893516 -8.922119 9.48161398 -7.41796875 7.68359375 C-5.71373415 5.66010859 -3.97446056 3.76291121 -2 2 C-1.34 2 -0.68 2 0 2 C0 1.34 0 0.68 0 0 Z " fill="#EBF3F9" transform="translate(403,61)"/>
<path d="M0 0 C2.64 0 5.28 0 8 0 C8 4.29 8 8.58 8 13 C5.36 13 2.72 13 0 13 C0 8.71 0 4.42 0 0 Z " fill="#C5C5C8" transform="translate(429,47)"/>
<path d="M0 0 C11.22 0 22.44 0 34 0 C34 0.99 34 1.98 34 3 C22.78 3 11.56 3 0 3 C0 2.01 0 1.02 0 0 Z " fill="#F8F8FB" transform="translate(409,62)"/>
<path d="M0 0 C1.47906892 -0.02689216 2.95827483 -0.04634621 4.4375 -0.0625 C5.26121094 -0.07410156 6.08492187 -0.08570313 6.93359375 -0.09765625 C9 0 9 0 10 1 C10.07313567 3.53049402 10.09247527 6.03304837 10.0625 8.5625 C10.05798828 9.27341797 10.05347656 9.98433594 10.04882812 10.71679688 C10.03700864 12.47790013 10.01907263 14.23896036 10 16 C8.35 16 6.7 16 5 16 C5 12.04 5 8.08 5 4 C3.35 4 1.7 4 0 4 C0 2.68 0 1.36 0 0 Z " fill="#F6F9F8" transform="translate(196,54)"/>
<path d="M0 0 C4 1 4 1 6.25 4.0625 C7.11625 5.5165625 7.11625 5.5165625 8 7 C8.33 4.69 8.66 2.38 9 0 C9.99 0 10.98 0 12 0 C12.02708567 1.60407328 12.04643483 3.2082785 12.0625 4.8125 C12.07410156 5.70582031 12.08570313 6.59914063 12.09765625 7.51953125 C12 10 12 10 11 13 C10.01 13 9.02 13 8 13 C4 7.74285714 4 7.74285714 4 5 C3.34 5 2.68 5 2 5 C2 7.31 2 9.62 2 12 C1.34 12 0.68 12 0 12 C0 8.04 0 4.08 0 0 Z " fill="#101719" transform="translate(284,55)"/>
<path d="M0 0 C3.21043882 1.38188453 5.04936365 2.92421903 7.25 5.625 C7.77078125 6.25664062 8.2915625 6.88828125 8.828125 7.5390625 C9.40820312 8.26222656 9.40820312 8.26222656 10 9 C9.360625 9.28875 8.72125 9.5775 8.0625 9.875 C5.84793921 10.82823451 5.84793921 10.82823451 5 13 C0.7257442 11.4169423 -1.26531794 8.49431596 -4 5 C-2.68 3.35 -1.36 1.7 0 0 Z " fill="#4978A0" transform="translate(421,22)"/>
<path d="M0 0 C0.33 0 0.66 0 1 0 C1.103125 1.11375 1.20625 2.2275 1.3125 3.375 C1.6528125 5.169375 1.6528125 5.169375 2 7 C2.99 7.66 3.98 8.32 5 9 C3.71034824 10.37562854 2.37310707 11.70766393 1 13 C0.34 13 -0.32 13 -1 13 C-1 13.66 -1 14.32 -1 15 C-1.66 15 -2.32 15 -3 15 C-3.33 15.66 -3.66 16.32 -4 17 C-4 15.68 -4 14.36 -4 13 C-6.31 12.67 -8.62 12.34 -11 12 C-11.33 11.01 -11.66 10.02 -12 9 C-10.88625 9.061875 -9.7725 9.12375 -8.625 9.1875 C-7.42875 9.125625 -6.2325 9.06375 -5 9 C-4.34 8.01 -3.68 7.02 -3 6 C-2.01 6 -1.02 6 0 6 C0 4.02 0 2.04 0 0 Z " fill="#66B4EE" transform="translate(404,48)"/>
<path d="M0 0 C1.45792884 -0.05399736 2.91642712 -0.09279177 4.375 -0.125 C5.18710938 -0.14820313 5.99921875 -0.17140625 6.8359375 -0.1953125 C9 0 9 0 11 2 C10.70241581 4.3381615 10.36760731 6.67182036 10 9 C10.33 9.99 10.66 10.98 11 12 C10.01 12 9.02 12 8 12 C7.34 11.01 6.68 10.02 6 9 C5.01 8.67 4.02 8.34 3 8 C3 9.32 3 10.64 3 12 C2.01 12 1.02 12 0 12 C0 9.69 0 7.38 0 5 C2.64 5 5.28 5 8 5 C8 4.01 8 3.02 8 2 C5.36 2 2.72 2 0 2 C0 1.34 0 0.68 0 0 Z " fill="#122131" transform="translate(250,55)"/>
<path d="M0 0 C7.75 -0.125 7.75 -0.125 10 1 C10.02688151 2.64574566 10.04634123 4.29161413 10.0625 5.9375 C10.07410156 6.85402344 10.08570313 7.77054688 10.09765625 8.71484375 C10 11 10 11 9 12 C7.33382885 12.04063832 5.66611905 12.042721 4 12 C4 11.34 4 10.68 4 10 C4.99 10 5.98 10 7 10 C7 9.01 7 8.02 7 7 C6.01 7 5.02 7 4 7 C4 6.34 4 5.68 4 5 C4.99 5 5.98 5 7 5 C7 4.01 7 3.02 7 2 C5.35 2 3.7 2 2 2 C2 5.3 2 8.6 2 12 C1.34 12 0.68 12 0 12 C0 8.04 0 4.08 0 0 Z " fill="#0E1820" transform="translate(332,55)"/>
<path d="M0 0 C0.33 0 0.66 0 1 0 C1 3.96 1 7.92 1 12 C1.66 12 2.32 12 3 12 C3 8.7 3 5.4 3 2 C4.65 2 6.3 2 8 2 C8 2.99 8 3.98 8 5 C7.01 5 6.02 5 5 5 C5 5.66 5 6.32 5 7 C5.99 7 6.98 7 8 7 C8 7.99 8 8.98 8 10 C7.01 10 6.02 10 5 10 C5 10.66 5 11.32 5 12 C5.99 12.33 6.98 12.66 8 13 C3.05632546 14.20577428 -0.20862412 13.6290678 -5 12 C-4.01 10.68 -3.02 9.36 -2 8 C-2 8.99 -2 9.98 -2 11 C-1.34 11 -0.68 11 0 11 C0 7.37 0 3.74 0 0 Z " fill="#4A9BA6" transform="translate(331,55)"/>
<path d="M0 0 C3.09911122 0.01299418 6.00839038 0.1529134 9 1 C10.6875 4 10.6875 4 12 7 C15.08961458 7.97474816 15.08961458 7.97474816 18 8 C18 8.33 18 8.66 18 9 C12.39 9 6.78 9 1 9 C1 8.67 1 8.34 1 8 C4.465 7.505 4.465 7.505 8 7 C5.6921509 5.84607545 3.52769669 5.46562834 1 5 C0.67 3.35 0.34 1.7 0 0 Z " fill="#5CA8E3" transform="translate(379,59)"/>
<path d="M0 0 C2.35371788 2.35371788 4.43532537 4.88347875 6.5625 7.44140625 C7.93659212 9.11591342 7.93659212 9.11591342 10 10 C10.33 9.01 10.66 8.02 11 7 C11.66 7.66 12.32 8.32 13 9 C12.01 10.485 12.01 10.485 11 12 C11.28299033 14.00774191 11.62773501 16.00687936 12 18 C12.1286947 20.95928251 12.09512574 23.91358627 12.0625 26.875 C12.05798828 27.65875 12.05347656 28.4425 12.04882812 29.25 C12.03714093 31.16670014 12.01920908 33.08336048 12 35 C11.67 35 11.34 35 11 35 C10.97421875 34.02160156 10.9484375 33.04320312 10.921875 32.03515625 C10.52273854 22.80966115 9.79755694 15.38179647 3.5625 8.1875 C1.0809123 6.06907147 -1.41644829 3.99302561 -4 2 C-2.68 2 -1.36 2 0 2 C0 1.34 0 0.68 0 0 Z " fill="#202A35" transform="translate(416,25)"/>
<path d="M0 0 C2.64 0 5.28 0 8 0 C8 0.99 8 1.98 8 3 C5.69 2.67 3.38 2.34 1 2 C1.33 2.66 1.66 3.32 2 4 C4.3140622 4.73075648 6.64828869 5.40138258 9 6 C9.042721 7.66611905 9.04063832 9.33382885 9 11 C8 12 8 12 6.15234375 12.09765625 C4.1015625 12.06510417 2.05078125 12.03255208 0 12 C-0.33 11.01 -0.66 10.02 -1 9 C1.64 9.33 4.28 9.66 7 10 C5.37633534 6.75267068 2.24612161 6.29844864 -1 5 C-0.67 3.35 -0.34 1.7 0 0 Z " fill="#0E141D" transform="translate(391,55)"/>
<path d="M0 0 C3 0.125 3 0.125 4 1.125 C4.1875 4.0625 4.1875 4.0625 4 7.125 C3.34 7.785 2.68 8.445 2 9.125 C-1.29714793 8.79528521 -2.6226839 8.5023161 -5 6.125 C-4.27477017 0.17811542 -4.27477017 0.17811542 0 0 Z " fill="#0E1C2B" transform="translate(414,14.875)"/>
<path d="M0 0 C1.47906892 -0.02689216 2.95827483 -0.04634621 4.4375 -0.0625 C5.26121094 -0.07410156 6.08492188 -0.08570313 6.93359375 -0.09765625 C9 0 9 0 10 1 C10.23255814 5.53488372 10.23255814 5.53488372 9 8 C9.39938767 10.09821215 9.39938767 10.09821215 10 12 C9.01 12 8.02 12 7 12 C6.67 10.35 6.34 8.7 6 7 C4.68 7 3.36 7 2 7 C2 8.65 2 10.3 2 12 C1.34 12 0.68 12 0 12 C0 9.69 0 7.38 0 5 C2.64 5 5.28 5 8 5 C8 4.01 8 3.02 8 2 C5.36 2 2.72 2 0 2 C0 1.34 0 0.68 0 0 Z " fill="#0C1D21" transform="translate(303,55)"/>
<path d="M0 0 C4.16089965 4.05687716 4.16089965 4.05687716 5.5 6.4375 C5.5 7.7575 5.5 9.0775 5.5 10.4375 C4.51 10.1075 3.52 9.7775 2.5 9.4375 C2.4175 8.65375 2.335 7.87 2.25 7.0625 C1.75833333 4.34791667 1.75833333 4.34791667 -0.3125 3.0625 C-2.89011317 2.32603909 -3.93640304 2.79312391 -6.5 3.4375 C-8.08211573 3.50298492 -9.66670081 3.52328381 -11.25 3.5 C-12.04921875 3.49097656 -12.8484375 3.48195313 -13.671875 3.47265625 C-14.27515625 3.46105469 -14.8784375 3.44945312 -15.5 3.4375 C-14.5 1.4375 -14.5 1.4375 -12.20703125 0.4453125 C-4.36206344 -1.94734975 -4.36206344 -1.94734975 0 0 Z " fill="#DCF4F9" transform="translate(211.5,49.5625)"/>
<path d="M0 0 C0.66 0.33 1.32 0.66 2 1 C2 1.99 2 2.98 2 4 C2.99 4.33 3.98 4.66 5 5 C4.01 5 3.02 5 2 5 C2.01160156 5.84304687 2.02320313 6.68609375 2.03515625 7.5546875 C2.04869141 9.19824219 2.04869141 9.19824219 2.0625 10.875 C2.07410156 11.96554688 2.08570313 13.05609375 2.09765625 14.1796875 C2 17 2 17 1 19 C1.99 19.33 2.98 19.66 4 20 C1.69 20 -0.62 20 -3 20 C-2.88655624 17.8535247 -2.75893655 15.70779408 -2.625 13.5625 C-2.52058594 11.77005859 -2.52058594 11.77005859 -2.4140625 9.94140625 C-2.27742188 8.97074219 -2.14078125 8.00007813 -2 7 C-1.34 6.67 -0.68 6.34 0 6 C0 4.02 0 2.04 0 0 Z " fill="#60D6DB" transform="translate(282,50)"/>
<path d="M0 0 C2.01822917 0.06510417 4.03645833 0.13020833 6.0546875 0.1953125 C6.3846875 1.1853125 6.7146875 2.1753125 7.0546875 3.1953125 C4.4146875 3.1953125 1.7746875 3.1953125 -0.9453125 3.1953125 C-0.9453125 4.8453125 -0.9453125 6.4953125 -0.9453125 8.1953125 C-0.1821875 8.3396875 0.5809375 8.4840625 1.3671875 8.6328125 C4.0546875 9.1953125 4.0546875 9.1953125 7.0546875 10.1953125 C6.7246875 10.8553125 6.3946875 11.5153125 6.0546875 12.1953125 C-1.33064428 12.67959655 -1.33064428 12.67959655 -4.0078125 10.5703125 C-5.26387858 7.38827844 -4.86601503 5.45318298 -3.9453125 2.1953125 C-1.9453125 0.1953125 -1.9453125 0.1953125 0 0 Z " fill="#0C1825" transform="translate(380.9453125,54.8046875)"/>
<path d="M0 0 C0.2475 0.58652344 0.495 1.17304688 0.75 1.77734375 C2.18382496 4.32686375 3.74692804 5.71117065 6 7.5625 C8.55772463 9.67356316 10.133135 11.19970251 12 14 C14.32481174 15.01965427 16.65794699 16.02059602 19 17 C20.35439668 19.70879335 20.06501451 22.00933268 20 25 C19.7525 24.4225 19.505 23.845 19.25 23.25 C17.7432025 20.53776451 16.48756387 18.88248076 14 17 C10.3324787 16.66582071 10.3324787 16.66582071 7 17 C7.66 16.01 8.32 15.02 9 14 C7.87811441 12.85111717 6.75238316 11.70598863 5.625 10.5625 C4.99851562 9.92441406 4.37203125 9.28632813 3.7265625 8.62890625 C2.08276939 6.92117824 2.08276939 6.92117824 0 6 C-0.66 7.32 -1.32 8.64 -2 10 C-2.66 9.67 -3.32 9.34 -4 9 C-3.525625 8.443125 -3.05125 7.88625 -2.5625 7.3125 C-0.87604004 4.81653926 -0.41046893 2.9553763 0 0 Z " fill="#0C0F17" transform="translate(421,16)"/>
<path d="M0 0 C5.44693314 -0.09688221 10.63904667 -0.12862175 16 1 C15.01 1.495 15.01 1.495 14 2 C14 5.3 14 8.6 14 12 C13.34 12 12.68 12 12 12 C12 12.66 12 13.32 12 14 C10.68 13.67 9.36 13.34 8 13 C8.66 13 9.32 13 10 13 C9.34 11.35 8.68 9.7 8 8 C8.33 7.67 8.66 7.34 9 7 C9.04063832 5.33382885 9.042721 3.66611905 9 2 C6.03 1.67 3.06 1.34 0 1 C0 0.67 0 0.34 0 0 Z " fill="#5CBDC0" transform="translate(303,54)"/>
<path d="M0 0 C0 0.66 0 1.32 0 2 C-0.66 2 -1.32 2 -2 2 C-2.66 3.32 -3.32 4.64 -4 6 C-4.66 6 -5.32 6 -6 6 C-6 6.66 -6 7.32 -6 8 C-9.31114834 9.12880057 -12.58978257 10.21302675 -16 11 C-16 11.99 -16 12.98 -16 14 C-18.375 15.75 -18.375 15.75 -21 17 C-21.66 16.67 -22.32 16.34 -23 16 C-21.6875 14 -21.6875 14 -20 12 C-19.01 12 -18.02 12 -17 12 C-16.67 11.01 -16.34 10.02 -16 9 C-14.68352881 8.30062468 -13.34977849 7.63270867 -12 7 C-11.67 6.34 -11.34 5.68 -11 5 C-9.35 5 -7.7 5 -6 5 C-5.67 4.01 -5.34 3.02 -5 2 C-2 0 -2 0 0 0 Z " fill="#5DD3EE" transform="translate(376,32)"/>
<path d="M0 0 C0.90078278 0.02009628 1.80156555 0.04019257 2.72964478 0.06089783 C3.70364227 0.08793289 4.67763977 0.11496796 5.68115234 0.14282227 C7.17514053 0.17823875 7.17514053 0.17823875 8.6993103 0.21437073 C11.88871165 0.29110498 15.07787613 0.37508735 18.26708984 0.45922852 C20.42593232 0.51243942 22.58478644 0.56517988 24.74365234 0.61743164 C30.04327891 0.74673328 35.34272875 0.88199042 40.64208984 1.02172852 C40.64208984 1.35172852 40.64208984 1.68172852 40.64208984 2.02172852 C25.79208984 2.02172852 10.94208984 2.02172852 -4.35791016 2.02172852 C-5.01791016 3.34172852 -5.67791016 4.66172852 -6.35791016 6.02172852 C-7.01791016 6.02172852 -7.67791016 6.02172852 -8.35791016 6.02172852 C-6.49545186 0.83345184 -5.4734685 -0.13760116 0 0 Z " fill="#6DB0E4" transform="translate(505.35791015625,68.978271484375)"/>
<path d="M0 0 C1.859375 0.22265625 1.859375 0.22265625 4 1 C5.265625 2.99609375 5.265625 2.99609375 6.25 5.4375 C6.58515625 6.24058594 6.9203125 7.04367188 7.265625 7.87109375 C8 10 8 10 8 12 C7.01 12 6.02 12 5 12 C4.01 9.36 3.02 6.72 2 4 C0.68 6.64 -0.64 9.28 -2 12 C-2.66 12 -3.32 12 -4 12 C-3.45660208 7.43545749 -2.20536179 4.0271824 0 0 Z " fill="#0B1320" transform="translate(240,55)"/>
<path d="M0 0 C0.33 0.99 0.66 1.98 1 3 C-1.31 3 -3.62 3 -6 3 C-6 4.98 -6 6.96 -6 9 C-3.69 9 -1.38 9 1 9 C0.67 9.99 0.34 10.98 0 12 C-6.3782235 12.36103152 -6.3782235 12.36103152 -8.9375 10.875 C-10.50422245 8.11019567 -10.38976435 6.11811483 -10 3 C-7.7109263 -1.03954182 -4.21983723 -0.23885871 0 0 Z " fill="#091422" transform="translate(273,55)"/>
<path d="M0 0 C0.66 1.65 1.32 3.3 2 5 C-0.31 6.98 -2.62 8.96 -5 11 C-6.32 10.34 -7.64 9.68 -9 9 C-7.45665977 5.21180126 -4.44676575 0 0 0 Z " fill="#61AFE9" transform="translate(407,23)"/>
<path d="M0 0 C1.32 0 2.64 0 4 0 C4 2.64 4 5.28 4 8 C4.99 8.33 5.98 8.66 7 9 C6.67 9.99 6.34 10.98 6 12 C3.36 11.67 0.72 11.34 -2 11 C-2 10.01 -2 9.02 -2 8 C-1.34 8 -0.68 8 0 8 C0 5.36 0 2.72 0 0 Z " fill="#5EA4D7" transform="translate(394,44)"/>
<path d="M0 0 C0 2.33333333 0 4.66666667 0 7 C-0.66 7.66 -1.32 8.32 -2 9 C-4.125 8.625 -4.125 8.625 -6 8 C-6.33 9.65 -6.66 11.3 -7 13 C-5.02 13 -3.04 13 -1 13 C-1 13.33 -1 13.66 -1 14 C-2.7015625 14.2165625 -2.7015625 14.2165625 -4.4375 14.4375 C-7.80777201 14.61171478 -7.80777201 14.61171478 -9 16 C-9.23192865 17.51469448 -9.41215238 19.03754562 -9.5625 20.5625 C-9.64628906 21.38878906 -9.73007812 22.21507813 -9.81640625 23.06640625 C-9.87699219 23.70449219 -9.93757813 24.34257813 -10 25 C-10.33 25 -10.66 25 -11 25 C-11 21.37 -11 17.74 -11 14 C-10.34 14 -9.68 14 -9 14 C-9.13921875 12.65035156 -9.13921875 12.65035156 -9.28125 11.2734375 C-9 8 -9 8 -7.03125 5.6640625 C-6.1959375 4.99117187 -5.360625 4.31828125 -4.5 3.625 C-3.6646875 2.93664062 -2.829375 2.24828125 -1.96875 1.5390625 C-0.99421875 0.77722656 -0.99421875 0.77722656 0 0 Z " fill="#091221" transform="translate(400,26)"/>
<path d="M0 0 C2.5 0.125 2.5 0.125 3.5 1.125 C3.625 4.125 3.625 4.125 3.5 7.125 C2.5 8.125 2.5 8.125 0.0625 8.3125 C-2.5 8.125 -2.5 8.125 -4.5 6.125 C-3.77607362 0.18880368 -3.77607362 0.18880368 0 0 Z " fill="#60CFD2" transform="translate(322.5,56.875)"/>
<path d="M0 0 C1.99954746 -0.04254356 4.00041636 -0.04080783 6 0 C7 1 7 1 7.1875 3.4375 C7 6 7 6 5 8 C2.375 7.625 2.375 7.625 0 7 C-1.125 2.25 -1.125 2.25 0 0 Z " fill="#60ABE3" transform="translate(348,57)"/>
<path d="M0 0 C2.33944736 0.28730055 4.6739143 0.61936779 7 1 C6.34 3.31 5.68 5.62 5 8 C3.33388095 8.042721 1.66617115 8.04063832 0 8 C-1 7 -1 7 -1.125 4 C-1 1 -1 1 0 0 Z " fill="#5FAEE7" transform="translate(267,57)"/>
<path d="M0 0 C1.17046875 0.10183594 2.3409375 0.20367187 3.546875 0.30859375 C4.43890625 0.39238281 5.3309375 0.47617187 6.25 0.5625 C6.25 0.8925 6.25 1.2225 6.25 1.5625 C2.95 1.5625 -0.35 1.5625 -3.75 1.5625 C-3.75 5.5225 -3.75 9.4825 -3.75 13.5625 C-4.41 13.5625 -5.07 13.5625 -5.75 13.5625 C-5.91435547 12.40621094 -5.91435547 12.40621094 -6.08203125 11.2265625 C-6.31986328 9.72222656 -6.31986328 9.72222656 -6.5625 8.1875 C-6.78873047 6.69089844 -6.78873047 6.69089844 -7.01953125 5.1640625 C-7.53772298 2.2337636 -7.53772298 2.2337636 -10.75 0.5625 C-7.06599416 -0.66854155 -3.83525024 -0.34517252 0 0 Z " fill="#66DEE2" transform="translate(334.75,52.4375)"/>
<path d="M0 0 C3.63 0 7.26 0 11 0 C11 0.66 11 1.32 11 2 C9.68 2 8.36 2 7 2 C7 5.3 7 8.6 7 12 C6.01 12 5.02 12 4 12 C4 8.7 4 5.4 4 2 C2.68 2 1.36 2 0 2 C0 1.34 0 0.68 0 0 Z " fill="#0B1728" transform="translate(358,55)"/>
<path d="M0 0 C3.63 0 7.26 0 11 0 C11 0.66 11 1.32 11 2 C9.68 2 8.36 2 7 2 C7 5.3 7 8.6 7 12 C6.01 12 5.02 12 4 12 C4 8.7 4 5.4 4 2 C2.68 2 1.36 2 0 2 C0 1.34 0 0.68 0 0 Z " fill="#0B1B2F" transform="translate(226,55)"/>
<path d="M0 0 C0.66 0 1.32 0 2 0 C6 5.41176471 6 5.41176471 6 8 C6.99 8 7.98 8 9 8 C9 7.01 9 6.02 9 5 C9.66 5 10.32 5 11 5 C11 5.66 11 6.32 11 7 C11.66 7 12.32 7 13 7 C13 7.66 13 8.32 13 9 C11.06280622 9.05406122 9.12518079 9.09282025 7.1875 9.125 C6.10855469 9.14820312 5.02960938 9.17140625 3.91796875 9.1953125 C1 9 1 9 -2 7 C-1.34 7 -0.68 7 0 7 C0 4.69 0 2.38 0 0 Z " fill="#5ED9DF" transform="translate(286,60)"/>
<path d="M0 0 C2.64 0 5.28 0 8 0 C8 0.66 8 1.32 8 2 C7.01 2 6.02 2 5 2 C4.814375 2.70125 4.62875 3.4025 4.4375 4.125 C2.48827039 8.02345922 -0.34793019 10.63306834 -4 13 C-4.99 13 -5.98 13 -7 13 C-7 12.34 -7 11.68 -7 11 C-4.36107824 9.21694476 -2.02821137 8.00940379 1 7 C0.67 4.69 0.34 2.38 0 0 Z " fill="#5ECCF0" transform="translate(319,67)"/>
<path d="M0 0 C1.32 0.33 2.64 0.66 4 1 C3.01 1.495 3.01 1.495 2 2 C2 2.66 2 3.32 2 4 C2.66 4.33 3.32 4.66 4 5 C4 8.3 4 11.6 4 15 C3.34 15 2.68 15 2 15 C2 14.34 2 13.68 2 13 C0.35 13.66 -1.3 14.32 -3 15 C-3.66 14.34 -4.32 13.68 -5 13 C-4.34 13 -3.68 13 -3 13 C-3 12.01 -3 11.02 -3 10 C-2.01 10 -1.02 10 0 10 C0 6.7 0 3.4 0 0 Z " fill="#5FAEE9" transform="translate(365,57)"/>
<path d="M0 0 C0.125 2.375 0.125 2.375 0 5 C-0.66 5.66 -1.32 6.32 -2 7 C-2 7.99 -2 8.98 -2 10 C-3.32 10 -4.64 10 -6 10 C-6 6.7 -6 3.4 -6 0 C-3 -1 -3 -1 0 0 Z " fill="#5CB5F7" transform="translate(213,59)"/>
<path d="M0 0 C2.375 -0.125 2.375 -0.125 5 0 C7 2 7 2 7.3125 5.4375 C7 9 7 9 5.9375 10.9375 C2.92115289 12.59162584 0.36333392 12.30575763 -3 12 C-5 10 -5 10 -5.125 7.375 C-5.08375 6.59125 -5.0425 5.8075 -5 5 C-4.62875 5.66 -4.2575 6.32 -3.875 7 C-2.09105222 9.35303045 -2.09105222 9.35303045 1.1875 9.25 C2.5796875 9.12625 2.5796875 9.12625 4 9 C4.33397787 6.12586875 4.33397787 6.12586875 4 3 C2.11922127 1.08743288 2.11922127 1.08743288 0 0 Z " fill="#DCDDDE" transform="translate(432,33)"/>
<path d="M0 0 C0 0.33 0 0.66 0 1 C-1.10408203 1.22042969 -1.10408203 1.22042969 -2.23046875 1.4453125 C-8.89378002 2.97690584 -12.30911814 4.16602545 -16 10 C-17.27852287 12.21587348 -17.27852287 12.21587348 -18 14 C-18.25157139 8.46542943 -17.65110378 5.91741084 -14.0625 1.75 C-9.4955239 -0.85970063 -5.14386705 -0.32430685 0 0 Z " fill="#E8F6F8" transform="translate(208,48)"/>
<path d="M0 0 C0.33 0.66 0.66 1.32 1 2 C0.01 3.98 -0.98 5.96 -2 8 C2.95 8.33 7.9 8.66 13 9 C13 9.33 13 9.66 13 10 C6.07 10 -0.86 10 -8 10 C-6.35 7.69 -4.7 5.38 -3 3 C-2.34 3 -1.68 3 -1 3 C-0.67 2.01 -0.34 1.02 0 0 Z " fill="#CDD9DF" transform="translate(414,50)"/>
<path d="M0 0 C0.8146875 0.00257812 1.629375 0.00515625 2.46875 0.0078125 C3.2834375 0.00523438 4.098125 0.00265625 4.9375 0 C6.96875 0.1328125 6.96875 0.1328125 7.96875 1.1328125 C8.04054964 2.65209288 8.05267007 4.17448732 8.03125 5.6953125 C8.02222656 6.52160156 8.01320313 7.34789062 8.00390625 8.19921875 C7.99230469 8.83730469 7.98070312 9.47539063 7.96875 10.1328125 C7.63875 10.1328125 7.30875 10.1328125 6.96875 10.1328125 C6.96875 7.4928125 6.96875 4.8528125 6.96875 2.1328125 C4.32875 2.1328125 1.68875 2.1328125 -1.03125 2.1328125 C-1.03125 4.7728125 -1.03125 7.4128125 -1.03125 10.1328125 C-1.69125 10.1328125 -2.35125 10.1328125 -3.03125 10.1328125 C-3.05814216 8.65374358 -3.07759621 7.17453767 -3.09375 5.6953125 C-3.10535156 4.87160156 -3.11695313 4.04789063 -3.12890625 3.19921875 C-2.99750338 0.41873396 -2.77471038 0.18142337 0 0 Z " fill="#69A3D1" transform="translate(393.03125,40.8671875)"/>
<path d="M0 0 C0.33 0.66 0.66 1.32 1 2 C3.64 2 6.28 2 9 2 C9 2.99 9 3.98 9 5 C6.36 5 3.72 5 1 5 C1 6.32 1 7.64 1 9 C0.01 9 -0.98 9 -2 9 C-2.33 7.68 -2.66 6.36 -3 5 C-2.01 5 -1.02 5 0 5 C0 3.35 0 1.7 0 0 Z " fill="#65B0EA" transform="translate(249,55)"/>
<path d="M0 0 C0.99 0.33 1.98 0.66 3 1 C2.29875 1.680625 1.5975 2.36125 0.875 3.0625 C-1.78262379 5.69753775 -4.13532371 8.52917172 -6.47265625 11.44921875 C-8.17116439 13.17379096 -9.79393122 14.03692051 -12 15 C-12 13.68 -12 12.36 -12 11 C-11.34 11 -10.68 11 -10 11 C-9.67 10.34 -9.34 9.68 -9 9 C-4.46511628 4.23255814 -4.46511628 4.23255814 -2 3 C-1.67 2.34 -1.34 1.68 -1 1 C-0.67 0.67 -0.34 0.34 0 0 Z " fill="#E3F3FB" transform="translate(490,45)"/>
<path d="M0 0 C3.69230769 0.69230769 3.69230769 0.69230769 5 2 C5.04063832 3.66617115 5.042721 5.33388095 5 7 C3.68 7 2.36 7 1 7 C0.34 6.01 -0.32 5.02 -1 4 C-3.19454681 3.42006301 -3.19454681 3.42006301 -5.625 3.3125 C-6.44226563 3.24675781 -7.25953125 3.18101563 -8.1015625 3.11328125 C-8.72804687 3.07589844 -9.35453125 3.03851563 -10 3 C-10 2.67 -10 2.34 -10 2 C-9.04287109 1.90912109 -9.04287109 1.90912109 -8.06640625 1.81640625 C-6.82697266 1.69072266 -6.82697266 1.69072266 -5.5625 1.5625 C-4.73878906 1.48128906 -3.91507813 1.40007813 -3.06640625 1.31640625 C-1.01337975 1.21069185 -1.01337975 1.21069185 0 0 Z " fill="#6EB1E5" transform="translate(206,51)"/>
<path d="M0 0 C0.99 0 1.98 0 3 0 C3 4.29 3 8.58 3 13 C0.525 12.01 0.525 12.01 -2 11 C-1.85892253 9.54119891 -1.71197585 8.08296449 -1.5625 6.625 C-1.48128906 5.81289063 -1.40007812 5.00078125 -1.31640625 4.1640625 C-1 2 -1 2 0 0 Z " fill="#1E2D3D" transform="translate(400,41)"/>
<path d="M0 0 C0.99 0.33 1.98 0.66 3 1 C3 2.65 3 4.3 3 6 C1.35 6.66 -0.3 7.32 -2 8 C-2 7.34 -2 6.68 -2 6 C-3.65 6.66 -5.3 7.32 -7 8 C-7 7.34 -7 6.68 -7 6 C-6.34 6 -5.68 6 -5 6 C-5 5.34 -5 4.68 -5 4 C-2.6875 1.8125 -2.6875 1.8125 0 0 Z " fill="#E6F0F6" transform="translate(423,42)"/>
<path d="M0 0 C1.47906892 -0.02689216 2.95827483 -0.04634621 4.4375 -0.0625 C5.26121094 -0.07410156 6.08492187 -0.08570313 6.93359375 -0.09765625 C9 0 9 0 10 1 C10.07313567 3.53049402 10.09247527 6.03304837 10.0625 8.5625 C10.05798828 9.27341797 10.05347656 9.98433594 10.04882812 10.71679688 C10.03700864 12.47790013 10.01907263 14.23896036 10 16 C8.35 16 6.7 16 5 16 C5 14.02 5 12.04 5 10 C5.33 10 5.66 10 6 10 C6 11.65 6 13.3 6 15 C6.99 15 7.98 15 9 15 C9 11.37 9 7.74 9 4 C8.01 4 7.02 4 6 4 C6 3.34 6 2.68 6 2 C3.03 1.505 3.03 1.505 0 1 C0 0.67 0 0.34 0 0 Z " fill="#E1F7FD" transform="translate(196,54)"/>
<path d="M0 0 C3.2578125 -0.29296875 3.2578125 -0.29296875 7.125 -0.1875 C9.04699219 -0.14689453 9.04699219 -0.14689453 11.0078125 -0.10546875 C11.99523437 -0.07066406 12.98265625 -0.03585938 14 0 C14 0.66 14 1.32 14 2 C12 4 12 4 9 5 C8.34 4.67 7.68 4.34 7 4 C5.46331135 3.77532169 3.92031946 3.59203195 2.375 3.4375 C1.55773437 3.35371094 0.74046875 3.26992188 -0.1015625 3.18359375 C-0.72804688 3.12300781 -1.35453125 3.06242187 -2 3 C-1.34 2.01 -0.68 1.02 0 0 Z " fill="#57CFD6" transform="translate(333,52)"/>
<path d="M0 0 C0.99 0 1.98 0 3 0 C6 4.22222222 6 4.22222222 6 7 C6.66 7.33 7.32 7.66 8 8 C7.67 8.66 7.34 9.32 7 10 C2.7257442 8.4169423 0.73468206 5.49431596 -2 2 C-1.34 1.34 -0.68 0.68 0 0 Z " fill="#62A5D9" transform="translate(419,25)"/>
<path d="M0 0 C1.65 0 3.3 0 5 0 C5 2.64 5 5.28 5 8 C4.01 8.33 3.02 8.66 2 9 C-1.07692308 4.56923077 -1.07692308 4.56923077 -0.6875 1.6875 C-0.460625 1.130625 -0.23375 0.57375 0 0 Z " fill="#5FB0E5" transform="translate(196,59)"/>
<path d="M0 0 C7.92 0 15.84 0 24 0 C24 0.33 24 0.66 24 1 C20.37 1 16.74 1 13 1 C13 1.66 13 2.32 13 3 C14.32 3.33 15.64 3.66 17 4 C15.25 4.6875 15.25 4.6875 13 5 C12.1028125 4.2884375 12.1028125 4.2884375 11.1875 3.5625 C8.10167906 1.35834218 5.70920966 1.79767947 2 2 C1.01 2 0.02 2 -1 2 C-0.67 1.34 -0.34 0.68 0 0 Z " fill="#5B97C2" transform="translate(345,54)"/>
<path d="M0 0 C2.31 0 4.62 0 7 0 C7 0.66 7 1.32 7 2 C6.01 2 5.02 2 4 2 C4 4.64 4 7.28 4 10 C1.4375 7.8125 1.4375 7.8125 -1 5 C-0.8125 2.1875 -0.8125 2.1875 0 0 Z " fill="#60CDD0" transform="translate(289,53)"/>
<path d="M0 0 C1.0625 1.8125 1.0625 1.8125 2 4 C1.67 4.99 1.34 5.98 1 7 C0.77202438 9.73289293 0.58331813 12.45042204 0.4375 15.1875 C0.39431641 15.93708984 0.35113281 16.68667969 0.30664062 17.45898438 C0.20077315 19.30578375 0.0999024 21.15286834 0 23 C-0.33 23 -0.66 23 -1 23 C-1 18.71 -1 14.42 -1 10 C-3.31 9.67 -5.62 9.34 -8 9 C-8 8.67 -8 8.34 -8 8 C-4.535 7.505 -4.535 7.505 -1 7 C-0.67 4.69 -0.34 2.38 0 0 Z " fill="#515153" transform="translate(439,37)"/>
<path d="M0 0 C-1.65 1.32 -3.3 2.64 -5 4 C-4.50168276 7.68754757 -3.89932357 9.60490662 -1 12 C-3.9375 11.625 -3.9375 11.625 -7 11 C-8.39935013 8.20129973 -8.25265405 6.09501208 -8 3 C-5.87141064 -0.36093057 -3.79035926 -0.30732643 0 0 Z " fill="#080E12" transform="translate(324,55)"/>
<path d="M0 0 C0 0.99 0 1.98 0 3 C-1.32 3.33 -2.64 3.66 -4 4 C-4.33 5.32 -4.66 6.64 -5 8 C-5.66 8 -6.32 8 -7 8 C-7 8.66 -7 9.32 -7 10 C-9.375 11.6875 -9.375 11.6875 -12 13 C-12.66 12.67 -13.32 12.34 -14 12 C-12.04761147 9.99387601 -10.08862178 7.99507567 -8.125 6 C-7.29162109 5.14148438 -7.29162109 5.14148438 -6.44140625 4.265625 C-2.2265625 0 -2.2265625 0 0 0 Z " fill="#7ABFEC" transform="translate(531,9)"/>
<path d="M0 0 C3.54324202 0.16184466 4.35173944 0.3868662 7.1875 2.75 C8.75813129 5.96265491 8.70340082 7.2348726 7.5625 10.5625 C7.2325 10.5625 6.9025 10.5625 6.5625 10.5625 C5.9025 8.2525 5.2425 5.9425 4.5625 3.5625 C-1.52158472 3.36435739 -1.52158472 3.36435739 -7.4375 4.5625 C-5.68466615 0.82312113 -3.92650712 0.2002002 0 0 Z " fill="#1A2A3C" transform="translate(413.4375,10.4375)"/>
<path d="M0 0 C0.99 0 1.98 0 3 0 C3.02708567 1.60407328 3.04643483 3.2082785 3.0625 4.8125 C3.07410156 5.70582031 3.08570313 6.59914063 3.09765625 7.51953125 C3 10 3 10 2 13 C1.01 12.67 0.02 12.34 -1 12 C-0.34 12 0.32 12 1 12 C0.649375 11.505 0.29875 11.01 -0.0625 10.5 C-1.46011601 6.77302397 -0.65032859 3.90197152 0 0 Z " fill="#305457" transform="translate(293,55)"/>
<path d="M0 0 C0.99 0 1.98 0 3 0 C3 3.96 3 7.92 3 12 C2.01 12 1.02 12 0 12 C0 8.04 0 4.08 0 0 Z " fill="#17283B" transform="translate(371,55)"/>
<path d="M0 0 C0.99 0 1.98 0 3 0 C3 3.96 3 7.92 3 12 C2.01 12 1.02 12 0 12 C0 8.04 0 4.08 0 0 Z " fill="#162F30" transform="translate(277,55)"/>
<path d="M0 0 C1.32 0 2.64 0 4 0 C3.67 2.64 3.34 5.28 3 8 C2.34 8 1.68 8 1 8 C0.67 8.66 0.34 9.32 0 10 C0 9.01 0 8.02 0 7 C-0.99 7.33 -1.98 7.66 -3 8 C-3 7.01 -3 6.02 -3 5 C-2.34 5 -1.68 5 -1 5 C-0.67 3.35 -0.34 1.7 0 0 Z " fill="#60AEEA" transform="translate(388,32)"/>
<path d="M0 0 C3 2 3 2 3.625 5 C3.74875 5.99 3.8725 6.98 4 8 C4.33 8.66 4.66 9.32 5 10 C3.68 10 2.36 10 1 10 C1 10.66 1 11.32 1 12 C-0.32 12 -1.64 12 -3 12 C-3 11.34 -3 10.68 -3 10 C-2.01 10 -1.02 10 0 10 C0 6.7 0 3.4 0 0 Z " fill="#65AADF" transform="translate(374,57)"/>
<path d="M0 0 C0 1.65 0 3.3 0 5 C1.65 5 3.3 5 5 5 C5 5.33 5 5.66 5 6 C3.35 6 1.7 6 0 6 C0 6.66 0 7.32 0 8 C-0.99 8.495 -0.99 8.495 -2 9 C-2.66 9.99 -3.32 10.98 -4 12 C-4.368 4.64 -4.368 4.64 -2.5625 1.5 C-1 0 -1 0 0 0 Z " fill="#75BAEC" transform="translate(196,53)"/>
<path d="M0 0 C4.95 0 9.9 0 15 0 C14.67 1.32 14.34 2.64 14 4 C12.4156683 3.91231752 10.83246433 3.80412671 9.25 3.6875 C7.92742187 3.60048828 7.92742187 3.60048828 6.578125 3.51171875 C4 3 4 3 0 0 Z " fill="#5BD1D4" transform="translate(313,52)"/>
<path d="M0 0 C0.99 0 1.98 0 3 0 C3.33 4.29 3.66 8.58 4 13 C3.34 13 2.68 13 2 13 C-0.20914 9.68629 -0.22481553 8.6553979 -0.125 4.8125 C-0.10695312 3.91144531 -0.08890625 3.01039062 -0.0703125 2.08203125 C-0.04710937 1.39496094 -0.02390625 0.70789062 0 0 Z " fill="#C7E7F5" transform="translate(189,58)"/>
<path d="M0 0 C2 2 2 2 2.25 5.75 C2.16876295 9.45982506 1.38476789 12.53808026 0 16 C-1.32 15.67 -2.64 15.34 -4 15 C-3.525625 14.38125 -3.05125 13.7625 -2.5625 13.125 C-0.41947162 8.83894324 -0.26657436 4.73399291 0 0 Z " fill="#79BAE9" transform="translate(217,56)"/>
<path d="M0 0 C1.32 0.33 2.64 0.66 4 1 C1.19195732 3.96404505 -1.18315774 6.44499019 -5 8 C-6.125 4.25 -6.125 4.25 -5 2 C-3.35 2 -1.7 2 0 2 C0 1.34 0 0.68 0 0 Z " fill="#6CB6EF" transform="translate(393,68)"/>
<path d="M0 0 C0.99 0 1.98 0 3 0 C1.25 5.75 1.25 5.75 -1 8 C-1.99 7.34 -2.98 6.68 -4 6 C-4 4.68 -4 3.36 -4 2 C-2.68 2 -1.36 2 0 2 C0 1.34 0 0.68 0 0 Z " fill="#63ABE0" transform="translate(237,55)"/>
<path d="M0 0 C1.65 0 3.3 0 5 0 C5 0.99 5 1.98 5 3 C4.01 3 3.02 3 2 3 C2 3.66 2 4.32 2 5 C2.99 5 3.98 5 5 5 C5 5.99 5 6.98 5 8 C3.68 8 2.36 8 1 8 C-0.35439668 5.29120665 -0.06501451 2.99066732 0 0 Z " fill="#65B9D1" transform="translate(334,57)"/>
<path d="M0 0 C0.99 0.33 1.98 0.66 3 1 C2.75 4.375 2.75 4.375 2 8 C-0.0625 9.4375 -0.0625 9.4375 -2 10 C-2.99 9.34 -3.98 8.68 -5 8 C-4.0409375 7.690625 -4.0409375 7.690625 -3.0625 7.375 C-0.65074923 6.10461791 -0.65074923 6.10461791 -0.25 2.875 C-0.1675 1.92625 -0.085 0.9775 0 0 Z " fill="#132230" transform="translate(355,57)"/>
<path d="M0 0 C0 0.99 0 1.98 0 3 C-1.98 3.99 -1.98 3.99 -4 5 C-4.99 4.34 -5.98 3.68 -7 3 C-7 2.01 -7 1.02 -7 0 C-4.3333581 -1.33332095 -2.83319697 -0.67102033 0 0 Z " fill="#59A5E0" transform="translate(407,36)"/>
<path d="M0 0 C2.0625 0.4375 2.0625 0.4375 4 1 C4.33 2.65 4.66 4.3 5 6 C3.02 6 1.04 6 -1 6 C-1.042721 4.33388095 -1.04063832 2.66617115 -1 1 C-0.67 0.67 -0.34 0.34 0 0 Z " fill="#5E9FCF" transform="translate(394,33)"/>
<path d="M0 0 C0.94875 0.04125 1.8975 0.0825 2.875 0.125 C2.25625 0.41375 1.6375 0.7025 1 1 C-1.25825765 2.06220042 -1.25825765 2.06220042 -3.125 4.125 C-2.78055119 6.59766765 -2.78055119 6.59766765 -2.125 9.125 C-2.125 10.115 -2.125 11.105 -2.125 12.125 C-4.1875 10.5 -4.1875 10.5 -6.125 8.125 C-5.92814533 3.20363334 -5.40330377 0.21613215 0 0 Z " fill="#669ECA" transform="translate(413.125,12.875)"/>
<path d="M0 0 C2.375 -0.1875 2.375 -0.1875 5 0 C5.66 0.99 6.32 1.98 7 3 C6.01 4.32 5.02 5.64 4 7 C2 5.1875 2 5.1875 0 3 C0 2.01 0 1.02 0 0 Z " fill="#59A4DD" transform="translate(422,17)"/>
<path d="M0 0 C0.33 0 0.66 0 1 0 C1 1.98 1 3.96 1 6 C1.66 6 2.32 6 3 6 C3 4.35 3 2.7 3 1 C4.32 1.33 5.64 1.66 7 2 C6.01 2 5.02 2 4 2 C4 4.31 4 6.62 4 9 C3.01 9.33 2.02 9.66 1 10 C0.34 9.67 -0.32 9.34 -1 9 C-0.67 6.03 -0.34 3.06 0 0 Z " fill="#57B1B4" transform="translate(302,61)"/>
<path d="M0 0 C0 0.99 0 1.98 0 3 C-1.65 3.33 -3.3 3.66 -5 4 C-5.33 5.65 -5.66 7.3 -6 9 C-6.99 9 -7.98 9 -9 9 C-8.4 3.6 -8.4 3.6 -6.75 1.125 C-4.41786614 -0.37422891 -2.71628175 -0.22023906 0 0 Z " fill="#6D8AA0" transform="translate(435,32)"/>
<path d="M0 0 C1.9375 0.3125 1.9375 0.3125 4 1 C4.33 1.99 4.66 2.98 5 4 C4.67 4.66 4.34 5.32 4 6 C2.35 5.67 0.7 5.34 -1 5 C-0.67 3.35 -0.34 1.7 0 0 Z " fill="#5C99CA" transform="translate(412,16)"/>
<path d="M0 0 C0.99 0 1.98 0 3 0 C2.979375 0.928125 2.95875 1.85625 2.9375 2.8125 C2.84230396 6.02286011 2.84230396 6.02286011 4 9 C2.35 9.33 0.7 9.66 -1 10 C-1.125 3.375 -1.125 3.375 0 0 Z " fill="#65ADE0" transform="translate(342,57)"/>
<path d="M0 0 C-0.33 1.32 -0.66 2.64 -1 4 C-1.66 4 -2.32 4 -3 4 C-4.2065625 5.2375 -4.2065625 5.2375 -5.4375 6.5 C-8 9 -8 9 -11 9 C-4.25 0 -4.25 0 0 0 Z " fill="#DEF1FC" transform="translate(455,12)"/>
<path d="M0 0 C1 3 1 3 0.3515625 5.078125 C-1.38967667 7.55410671 -2.74526918 7.92721977 -5.625 8.75 C-6.85089844 9.11351562 -6.85089844 9.11351562 -8.1015625 9.484375 C-9.04128906 9.73960938 -9.04128906 9.73960938 -10 10 C-10 9.34 -10 8.68 -10 8 C-4.25 5 -4.25 5 -2 5 C-2 4.01 -2 3.02 -2 2 C-1.34 2 -0.68 2 0 2 C0 1.34 0 0.68 0 0 Z " fill="#59BFF3" transform="translate(402,11)"/>
<path d="M0 0 C0.99 0 1.98 0 3 0 C2.67 3.96 2.34 7.92 2 12 C1.34 12 0.68 12 0 12 C0 8.04 0 4.08 0 0 Z " fill="#02090F" transform="translate(284,55)"/>
<path d="M0 0 C1.32 0.33 2.64 0.66 4 1 C5.35439668 3.70879335 5.06501451 6.00933268 5 9 C4.01 9.33 3.02 9.66 2 10 C1.34 6.7 0.68 3.4 0 0 Z " fill="#E7E8EC" transform="translate(439,32)"/>
<path d="M0 0 C0 0.99 0 1.98 0 3 C-2.9063515 5.80255323 -3.78825048 6 -8 6 C-6.56530686 1.69592058 -4.58010985 0 0 0 Z " fill="#58C5F1" transform="translate(312,80)"/>
<path d="M0 0 C0.33 0 0.66 0 1 0 C1.33 1.65 1.66 3.3 2 5 C4.31 5 6.62 5 9 5 C8.67 5.99 8.34 6.98 8 8 C4.625 8.1875 4.625 8.1875 1 8 C-1 5 -1 5 -0.625 2.3125 C-0.41875 1.549375 -0.2125 0.78625 0 0 Z " fill="#0F1A29" transform="translate(265,59)"/>
<path d="M0 0 C1.32 0 2.64 0 4 0 C4.5625 1.9375 4.5625 1.9375 5 4 C4 5 4 5 1.4375 5.0625 C0.2309375 5.0315625 0.2309375 5.0315625 -1 5 C-0.67 3.35 -0.34 1.7 0 0 Z " fill="#DBDADD" transform="translate(431,36)"/>
<path d="M0 0 C2.05078125 0.03255208 4.1015625 0.06510417 6.15234375 0.09765625 C6.15234375 1.08765625 6.15234375 2.07765625 6.15234375 3.09765625 C3.84234375 2.76765625 1.53234375 2.43765625 -0.84765625 2.09765625 C-1.17765625 3.08765625 -1.50765625 4.07765625 -1.84765625 5.09765625 C-2.41015625 3.16015625 -2.41015625 3.16015625 -2.84765625 1.09765625 C-1.84765625 0.09765625 -1.84765625 0.09765625 0 0 Z " fill="#152131" transform="translate(392.84765625,54.90234375)"/>
<path d="M0 0 C0.33 0.66 0.66 1.32 1 2 C-0.54442235 5.63393495 -1.48567857 6.78822059 -5.1875 8.3125 C-6.5796875 8.6528125 -6.5796875 8.6528125 -8 9 C-7.34 8.01 -6.68 7.02 -6 6 C-5.34 6 -4.68 6 -4 6 C-3.71125 5.38125 -3.4225 4.7625 -3.125 4.125 C-2 2 -2 2 0 0 Z " fill="#73BAF0" transform="translate(502,36)"/>
<path d="M0 0 C0.33 0.66 0.66 1.32 1 2 C0.01 3.175625 0.01 3.175625 -1 4.375 C-3.20201441 6.71512812 -3.20201441 6.71512812 -3 9 C-3.99 9.33 -4.98 9.66 -6 10 C-6 6 -6 6 -3.5625 3.3125 C-2.716875 2.549375 -1.87125 1.78625 -1 1 C-0.67 0.67 -0.34 0.34 0 0 Z " fill="#DFF1F8" transform="translate(443,22)"/>
<path d="M0 0 C2.64 0 5.28 0 8 0 C8 0.99 8 1.98 8 3 C5.36 3 2.72 3 0 3 C0 2.01 0 1.02 0 0 Z " fill="#66CDD3" transform="translate(303,57)"/>
<path d="M0 0 C-0.33 0.99 -0.66 1.98 -1 3 C-3.97 3 -6.94 3 -10 3 C-8.0130571 -0.97388579 -3.91761109 -0.08705802 0 0 Z " fill="#71BAED" transform="translate(206,50)"/>
<path d="M0 0 C1.98 0.66 3.96 1.32 6 2 C4.35 3.65 2.7 5.3 1 7 C0.67 4.69 0.34 2.38 0 0 Z " fill="#5DA7E0" transform="translate(394,24)"/>
<path d="M0 0 C2.97 0 5.94 0 9 0 C9 0.66 9 1.32 9 2 C2.25 3.125 2.25 3.125 0 2 C0 1.34 0 0.68 0 0 Z " fill="#54A7E0" transform="translate(264,67)"/>
<path d="M0 0 C0.33 0.99 0.66 1.98 1 3 C1.99 3 2.98 3 4 3 C3.67 2.01 3.34 1.02 3 0 C3.99 0 4.98 0 6 0 C6 0.99 6 1.98 6 3 C6.99 3.33 7.98 3.66 9 4 C5.62182575 4.84454356 3.32534757 5.10844919 0 4 C0 2.68 0 1.36 0 0 Z " fill="#609DCF" transform="translate(244,64)"/>
<path d="M0 0 C2.18975773 3.28463659 2.99806563 6.20696275 4 10 C3.01 10 2.02 10 1 10 C-1.125 3.375 -1.125 3.375 0 0 Z " fill="#131C29" transform="translate(244,57)"/>
<path d="M0 0 C0 0.66 0 1.32 0 2 C-0.66 2 -1.32 2 -2 2 C-2.66 3.32 -3.32 4.64 -4 6 C-4.66 6 -5.32 6 -6 6 C-6 6.66 -6 7.32 -6 8 C-6.66 8 -7.32 8 -8 8 C-8 7.01 -8 6.02 -8 5 C-7.34 5 -6.68 5 -6 5 C-5.67 4.01 -5.34 3.02 -5 2 C-2 0 -2 0 0 0 Z " fill="#58C4F0" transform="translate(376,32)"/>
<path d="M0 0 C1.98 0 3.96 0 6 0 C6.66 2.31 7.32 4.62 8 7 C4.2047869 5.50902342 2.38957269 3.24299151 0 0 Z " fill="#5C9ED2" transform="translate(427,24)"/>
<path d="M0 0 C-0.33 1.32 -0.66 2.64 -1 4 C-2.98 4.33 -4.96 4.66 -7 5 C-7.66 3.68 -8.32 2.36 -9 1 C-7.02 1.99 -7.02 1.99 -5 3 C-5 2.34 -5 1.68 -5 1 C-2 0 -2 0 0 0 Z " fill="#59B4FA" transform="translate(263,67)"/>
<path d="M0 0 C1.9375 0.3125 1.9375 0.3125 4 1 C4.33 1.99 4.66 2.98 5 4 C5.99 4.33 6.98 4.66 8 5 C5.36 4.67 2.72 4.34 0 4 C0 2.68 0 1.36 0 0 Z " fill="#63A5D8" transform="translate(253,63)"/>
<path d="M0 0 C2.64 0 5.28 0 8 0 C8 1.32 8 2.64 8 4 C5.69 3.67 3.38 3.34 1 3 C0.67 2.01 0.34 1.02 0 0 Z " fill="#579BCB" transform="translate(392,57)"/>
<path d="M0 0 C0 0.66 0 1.32 0 2 C-0.639375 2.2475 -1.27875 2.495 -1.9375 2.75 C-4.18741541 3.81562433 -4.18741541 3.81562433 -4.75 6.125 C-4.8325 6.74375 -4.915 7.3625 -5 8 C-5.99 7.67 -6.98 7.34 -8 7 C-8 5.68 -8 4.36 -8 3 C-2.25 0 -2.25 0 0 0 Z " fill="#5DC5F1" transform="translate(416,3)"/>
<path d="M0 0 C0.33 1.32 0.66 2.64 1 4 C0.360625 4.103125 -0.27875 4.20625 -0.9375 4.3125 C-1.618125 4.539375 -2.29875 4.76625 -3 5 C-3.33 5.99 -3.66 6.98 -4 8 C-4.99 7.67 -5.98 7.34 -7 7 C-4.69 4.69 -2.38 2.38 0 0 Z " fill="#7EC0EE" transform="translate(538,0)"/>
<path d="M0 0 C2.31 0 4.62 0 7 0 C6.6875 1.9375 6.6875 1.9375 6 4 C5.01 4.33 4.02 4.66 3 5 C3 4.01 3 3.02 3 2 C2.01 2 1.02 2 0 2 C0 1.34 0 0.68 0 0 Z " fill="#69B9F1" transform="translate(457,0)"/>
<path d="M0 0 C0.66 0 1.32 0 2 0 C1.67 1.98 1.34 3.96 1 6 C-0.65 6 -2.3 6 -4 6 C-2.7260411 3.96166576 -1.38938077 1.96147874 0 0 Z " fill="#DEEFFA" transform="translate(486,86)"/>
<path d="M0 0 C0.66 0 1.32 0 2 0 C3.32 2.31 4.64 4.62 6 7 C5.01 7.495 5.01 7.495 4 8 C3.67 6.68 3.34 5.36 3 4 C2.34 4 1.68 4 1 4 C0.67 4.99 0.34 5.98 0 7 C0 4.69 0 2.38 0 0 Z " fill="#5CB2B2" transform="translate(286,60)"/>
<path d="M0 0 C0.33 0.99 0.66 1.98 1 3 C-0.4375 5.1875 -0.4375 5.1875 -2 7 C-3.32 6.67 -4.64 6.34 -6 6 C-5.01 5.67 -4.02 5.34 -3 5 C-1.8499169 3.03327085 -1.8499169 3.03327085 -1 1 C-0.67 0.67 -0.34 0.34 0 0 Z " fill="#73B9EE" transform="translate(493,45)"/>
<path d="M0 0 C0.33 0 0.66 0 1 0 C1.33 1.98 1.66 3.96 2 6 C0.02 7.32 -1.96 8.64 -4 10 C-4 9.01 -4 8.02 -4 7 C-3 6 -2 5 -1 4 C-0.28552357 1.89667109 -0.28552357 1.89667109 0 0 Z " fill="#1A2C3C" transform="translate(405,17)"/>
<path d="M0 0 C1.32 0.33 2.64 0.66 4 1 C2.68 3.31 1.36 5.62 0 8 C-2 4.25 -2 4.25 -2 2 C-1.34 2 -0.68 2 0 2 C0 1.34 0 0.68 0 0 Z " fill="#5BB0E7" transform="translate(406,9)"/>
<path d="M0 0 C0.66 0.33 1.32 0.66 2 1 C1.525625 1.763125 1.05125 2.52625 0.5625 3.3125 C-1.10106097 5.96410548 -1.10106097 5.96410548 -2 9 C-2.66 8.34 -3.32 7.68 -4 7 C-3.68134222 3.70720291 -2.45484649 2.13464912 0 0 Z " fill="#C6E8FB" transform="translate(389,75)"/>
<path d="M0 0 C0.33 0.66 0.66 1.32 1 2 C-0.25 4.625 -0.25 4.625 -2 7 C-2.99 7 -3.98 7 -5 7 C-3.70700306 4.11562221 -2.34058637 2.12780579 0 0 Z " fill="#70B8ED" transform="translate(471,67)"/>
<path d="M0 0 C0.99 0.33 1.98 0.66 3 1 C2.38125 1.20625 1.7625 1.4125 1.125 1.625 C-1.84653645 3.54775888 -2.13024659 5.66594527 -3 9 C-3.33 9 -3.66 9 -4 9 C-4 7.35 -4 5.7 -4 4 C-2.68 3.34 -1.36 2.68 0 2 C0 1.34 0 0.68 0 0 Z " fill="#7CBAE7" transform="translate(193,49)"/>
<path d="M0 0 C0 3 0 3 -1 6 C-0.34 6.33 0.32 6.66 1 7 C-0.32 7 -1.64 7 -3 7 C-3 3 -3 3 -1.5 1.25 C-1.005 0.8375 -0.51 0.425 0 0 Z " fill="#629DCF" transform="translate(402,26)"/>
<path d="M0 0 C0.66 0 1.32 0 2 0 C2 0.66 2 1.32 2 2 C2.99 2.33 3.98 2.66 5 3 C5 3.66 5 4.32 5 5 C3.02 5 1.04 5 -1 5 C-0.67 3.35 -0.34 1.7 0 0 Z " fill="#53A3D7" transform="translate(412,6)"/>
<path d="M0 0 C0.33 0 0.66 0 1 0 C1.1953125 2.05078125 1.390625 4.1015625 1.5859375 6.15234375 C1.72257812 6.76207031 1.85921875 7.37179688 2 8 C2.66 8.33 3.32 8.66 4 9 C3.67 9.66 3.34 10.32 3 11 C2.34 11 1.68 11 1 11 C-0.20272819 8.59454362 -0.10071472 7.05003047 -0.0625 4.375 C-0.05347656 3.55773438 -0.04445313 2.74046875 -0.03515625 1.8984375 C-0.02355469 1.27195313 -0.01195312 0.64546875 0 0 Z " fill="#66E2EA" transform="translate(296,56)"/>
<path d="M0 0 C1.65 0 3.3 0 5 0 C5 1.32 5 2.64 5 4 C3.68 4 2.36 4 1 4 C0.67 2.68 0.34 1.36 0 0 Z " fill="#0F233B" transform="translate(206,54)"/>
<path d="M0 0 C1.95216435 1.95216435 2.84826645 3.53199953 4 6 C0.09161134 6 -1.11594107 4.49432124 -4 2 C-2.68 2 -1.36 2 0 2 C0 1.34 0 0.68 0 0 Z " fill="#1B2E41" transform="translate(416,25)"/>
<path d="M0 0 C0.86625 0.556875 0.86625 0.556875 1.75 1.125 C1.42 3.105 1.09 5.085 0.75 7.125 C0.42 7.125 0.09 7.125 -0.25 7.125 C-0.58 5.475 -0.91 3.825 -1.25 2.125 C-2.9 1.795 -4.55 1.465 -6.25 1.125 C-2.80384615 -1.09038462 -2.80384615 -1.09038462 0 0 Z " fill="#4E7FA7" transform="translate(418.25,13.875)"/>
<path d="M0 0 C0 3.10551666 -0.5393715 4.35261084 -2 7 C-3.32 6.67 -4.64 6.34 -6 6 C-5.01 5.67 -4.02 5.34 -3 5 C-1.8499169 3.03327085 -1.8499169 3.03327085 -1 1 C-0.67 0.67 -0.34 0.34 0 0 Z " fill="#72B6EA" transform="translate(453,85)"/>
<path d="M0 0 C0.99 0.33 1.98 0.66 3 1 C2.01 1.33 1.02 1.66 0 2 C-1.20882096 4.00016466 -1.20882096 4.00016466 -2 6 C-2.66 6 -3.32 6 -4 6 C-2.25 1.125 -2.25 1.125 0 0 Z " fill="#63B1EC" transform="translate(501,69)"/>
<path d="M0 0 C1.98 0 3.96 0 6 0 C4.6875 2.5 4.6875 2.5 3 5 C2.01 5 1.02 5 0 5 C0 3.35 0 1.7 0 0 Z " fill="#53C5C6" transform="translate(319,67)"/>
<path d="M0 0 C0.99 0.33 1.98 0.66 3 1 C1.35 2.98 -0.3 4.96 -2 7 C-2.33 5.68 -2.66 4.36 -3 3 C-2.01 3 -1.02 3 0 3 C0 2.01 0 1.02 0 0 Z " fill="#E4F4FC" transform="translate(469,65)"/>
<path d="M0 0 C0.268125 0.639375 0.53625 1.27875 0.8125 1.9375 C1.88667752 4.33131686 1.88667752 4.33131686 5 5 C3.02 5.33 1.04 5.66 -1 6 C-1.33 5.34 -1.66 4.68 -2 4 C-1.34 4 -0.68 4 0 4 C0 2.68 0 1.36 0 0 Z " fill="#5C93BC" transform="translate(334,63)"/>
<path d="M0 0 C0.99 0.33 1.98 0.66 3 1 C4.1875 3.5625 4.1875 3.5625 5 6 C4.01 6.33 3.02 6.66 2 7 C0 4 0 4 0 0 Z " fill="#112232" transform="translate(376,59)"/>
<path d="M0 0 C0.66 0 1.32 0 2 0 C2 2.31 2 4.62 2 7 C1.34 7 0.68 7 0 7 C-1.125 2.25 -1.125 2.25 0 0 Z " fill="#263344" transform="translate(199,59)"/>
<path d="M0 0 C0.928125 0.165 1.85625 0.33 2.8125 0.5 C5.95621353 1.07748388 5.95621353 1.07748388 9 1 C8.67 1.99 8.34 2.98 8 4 C5.36 3.67 2.72 3.34 0 3 C0 2.01 0 1.02 0 0 Z " fill="#548AB8" transform="translate(392,52)"/>
<path d="M0 0 C1.65 0 3.3 0 5 0 C6.125 1.75 6.125 1.75 7 4 C6.125 6.25 6.125 6.25 5 8 C4.731875 7.05125 4.46375 6.1025 4.1875 5.125 C3.25013412 1.74732727 3.25013412 1.74732727 0 0 Z " fill="#C9CACB" transform="translate(432,33)"/>
<path d="M0 0 C0.99 0.66 1.98 1.32 3 2 C1.35 3.65 -0.3 5.3 -2 7 C-2 5 -2 3 -2 1 C-1.34 0.67 -0.68 0.34 0 0 Z " fill="#6FB2EC" transform="translate(437,24)"/>
</svg>
